<svg version="1.2" xmlns="http://www.w3.org/2000/svg" viewBox="0 0 470 535" width="470" height="535">
	<title>noun-secure-4254707-svg</title>
	<style>
		.s0 { fill: #000000 } 
	</style>
	<g id="Layer">
		<path id="Layer" fill-rule="evenodd" class="s0" d="m459.6 100.8c1.9 2.9 2.9 6.2 2.9 9.7v98.8c-0.1 58.2-15.4 115.3-44.4 165.7-28.9 50.5-70.6 92.5-120.8 121.9l-53.4 31.2c-2.7 1.6-5.7 2.4-8.8 2.4-3.1 0-6.2-0.8-8.9-2.4l-53.5-31.2c-50.2-29.4-91.8-71.4-120.8-121.8-29-50.5-44.3-107.6-44.4-165.8v-98.8c0-3.5 1-6.8 2.9-9.7 2-2.9 4.7-5.1 7.9-6.4l210-87.5c4.3-1.8 9.1-1.8 13.4 0l210 87.5c3.2 1.3 5.9 3.5 7.9 6.4zm-32.1 21.4l-192.5-80.2-192.5 80.2v87.1c0.1 52 13.8 103.2 39.7 148.3 26 45.2 63.3 82.8 108.2 109.1l44.6 26 44.6-26c45-26.3 82.2-63.9 108.2-109.1 25.9-45.1 39.6-96.3 39.7-148.3z"/>
		<path id="Layer" class="s0" d="m159.9 235.9c-4.5-4.3-10.9-5.9-16.8-4.3-6 1.7-10.6 6.3-12.3 12.3-1.6 6 0 12.3 4.3 16.8l65.7 65.6c3.2 3.3 7.7 5.1 12.3 5.1 4.7 0 9.1-1.8 12.4-5.1l109.4-109.4c4.3-4.4 5.9-10.8 4.3-16.8-1.7-5.9-6.3-10.6-12.3-12.2-5.9-1.6-12.3 0-16.8 4.3l-97 97z"/>
	</g>
</svg>