<svg version="1.2" xmlns="http://www.w3.org/2000/svg" viewBox="0 0 284 205" width="284" height="205">
	<title>noun-arrow-5574219-svg</title>
	<style>
		.s0 { fill: #000000 } 
	</style>
	<path id="Layer" class="s0" d="m280.9 110.3c1.4-3.3 1.4-7.3 0-10.6-0.7-1.7-1.7-3.2-3.1-4.6l-84-84c-5.5-5.5-14.3-5.5-19.7 0-5.5 5.4-5.5 14.2 0 19.7l60 60.1h-218.1c-7.7 0-14 6.3-14 14 0 7.7 6.3 14 14 14h218.3l-60.1 60c-5.5 5.5-5.5 14.3 0 19.8 2.8 2.8 6.3 4 9.9 4 3.7 0 7.2-1.4 10-4l84-84c1.2-1.3 2.4-2.8 3.1-4.7z"/>
</svg>