<?xml version="1.0" encoding="utf-8"?>
<!-- Generator: Adobe Illustrator 24.0.1, SVG Export Plug-In . SVG Version: 6.00 Build 0)  -->
<svg version="1.1" id="Layer_1" xmlns="http://www.w3.org/2000/svg" xmlns:xlink="http://www.w3.org/1999/xlink" x="0px" y="0px"
	 viewBox="0 0 368 491" style="enable-background:new 0 0 368 491;" xml:space="preserve">
<style type="text/css">
	.st0{fill-rule:evenodd;clip-rule:evenodd;}
</style>
<title>noun-bill-1328973-svg-svg</title>
<path class="st0" d="M357.1,32.2L315.1,9c-2.5-1.4-5.6-1.4-8.1,0l-37.9,21l-38-21.1c-2.5-1.4-5.6-1.4-8.1,0l-37.9,20.9L147.2,8.9
	c-2.5-1.4-5.6-1.4-8.1,0l-37.9,20.9l-38-20.9c-2.5-1.4-5.6-1.4-8.1,0l-42,23.3c-2.7,1.5-4.3,4.3-4.3,7.3v434.3
	c0,2.9,1.5,5.7,4.1,7.2c2.5,1.5,5.7,1.5,8.3,0.1l38-20.9l37.9,20.9c2.5,1.4,5.6,1.4,8.1,0l37.9-20.9l37.9,20.9
	c2.5,1.4,5.6,1.4,8.1,0l38-20.9l37.9,20.9c2.5,1.4,5.6,1.4,8.1,0l37.9-20.9l37.9,20.9c2.6,1.4,5.8,1.4,8.3-0.1
	c2.6-1.5,4.1-4.3,4.1-7.2V39.4C361.3,36.4,359.7,33.7,357.1,32.2z M64.5,159.1c0-3,2.5-5.6,5.6-5.6H242c3.1,0,5.6,2.6,5.6,5.6
	c0,3.1-2.5,5.6-5.6,5.6l-171.9,0.1l0-0.1C67,164.7,64.5,162.2,64.5,159.1z M230.8,388.9H70.1c-3.1,0-5.6-2.5-5.6-5.6
	c0-3.1,2.5-5.6,5.6-5.6h160.7c3.1,0,5.6,2.5,5.6,5.6C236.4,386.4,233.9,388.9,230.8,388.9z M64.5,327.3c0-3.1,2.5-5.6,5.6-5.6h120
	c3.1,0,5.6,2.5,5.6,5.6c0,3.1-2.5,5.6-5.6,5.6h-120C67,332.9,64.5,330.4,64.5,327.3z M259.6,276.9H70.1c-3.1,0-5.6-2.5-5.6-5.6
	c0-3.1,2.5-5.6,5.6-5.6h189.5c3.1,0,5.6,2.5,5.6,5.6C265.2,274.4,262.7,276.9,259.6,276.9z M282.9,220.8H70.1
	c-3.1,0-5.6-2.5-5.6-5.6c0-3.1,2.5-5.6,5.6-5.6h212.8c3.1,0,5.6,2.5,5.6,5.6C288.5,218.3,286,220.8,282.9,220.8z M300.1,108.7h-230
	c-3.1,0-5.6-2.5-5.6-5.6c0-3.1,2.5-5.6,5.6-5.6h230c3.1,0,5.6,2.5,5.6,5.6C305.7,106.2,303.2,108.7,300.1,108.7z"/>
</svg>
