<svg version="1.2" xmlns="http://www.w3.org/2000/svg" viewBox="0 0 446 454" width="446" height="454">
	<title>noun-calendar-5651971-svg</title>
	<style>
		.s0 { fill: #000000 } 
	</style>
	<g id="Layer">
		<path id="Layer" class="s0" d="m109.5 7.5c11.6 0 21 11.6 21 21v21c0 11.6-9.4 21-21 21-11.6 0-21-11.6-21-21v-21c0-11.6 9.4-21 21-21z"/>
		<path id="Layer" class="s0" d="m340.5 7.5c11.6 0 21 11.6 21 21v21c0 11.6-9.4 21-21 21-11.6 0-21-11.6-21-21v-21c0-11.6 9.4-21 21-21z"/>
		<path id="Layer" fill-rule="evenodd" class="s0" d="m435 165v241.5c0 23.2-18.8 42-42 42h-336c-23.2 0-42-18.8-42-42v-241.5zm-294 189c0-11.6-9.4-21-21-21h-21c-11.6 0-21 9.4-21 21v21c0 11.6 9.4 21 21 21h21c11.6 0 21-9.4 21-21zm0-115.5c0-11.6-9.4-21-21-21h-21c-11.6 0-21 9.4-21 21v21c0 11.6 9.4 21 21 21h21c11.6 0 21-9.4 21-21zm115.5 115.5c0-11.6-9.4-21-21-21h-21c-11.6 0-21 9.4-21 21v21c0 11.6 9.4 21 21 21h21c11.6 0 21-9.4 21-21zm0-115.5c0-11.6-9.4-21-21-21h-21c-11.6 0-21 9.4-21 21v21c0 11.6 9.4 21 21 21h21c11.6 0 21-9.4 21-21zm115.5 115.5c0-11.6-9.4-21-21-21h-21c-11.6 0-21 9.4-21 21v21c0 11.6 9.4 21 21 21h21c11.6 0 21-9.4 21-21zm0-115.5c0-11.6-9.4-21-21-21h-21c-11.6 0-21 9.4-21 21v21c0 11.6 9.4 21 21 21h21c11.6 0 21-9.4 21-21z"/>
		<path id="Layer" class="s0" d="m435 144v-63c0-23.2-18.8-42-42-42h-10.5v10.5c0 23.2-18.8 42-42 42-23.2 0-42-18.8-42-42v-10.5h-147v10.5c0 23.2-18.8 42-42 42-23.2 0-42-18.8-42-42v-10.5h-10.5c-23.2 0-42 18.8-42 42v63z"/>
	</g>
</svg>