<svg version="1.2" xmlns="http://www.w3.org/2000/svg" viewBox="0 0 421 305" width="421" height="305">
	<title>noun-check-1822337-svg</title>
	<style>
		.s0 { fill: #000000 } 
	</style>
	<g id="Layer">
		<path id="Layer" class="s0" d="m379 5.3c-8.7 0.3-17 3.9-23.1 10.1-7.5 7.6-57.7 59.2-109.5 112.4-42.1 43.2-71.7 73.6-88.4 90.6l-94-71.5c-7-6.1-16.2-9.1-25.4-8.1-9.3 0.9-17.7 5.7-23.4 13.1-5.6 7.4-7.9 16.8-6.3 25.9 1.5 9.2 6.8 17.3 14.5 22.4l117.6 89.6c6.5 5 14.5 7.4 22.7 6.8 8.1-0.5 15.7-4 21.4-9.7 7.6-7.6 57.8-59 109.6-112.2 51.8-53.2 105.2-108.2 108.8-111.8 6.5-6.4 10.1-15.1 10.1-24.1 0-9.1-3.7-17.7-10.2-24.1-6.5-6.3-15.3-9.7-24.4-9.4z"/>
	</g>
</svg>