<svg version="1.2" xmlns="http://www.w3.org/2000/svg" viewBox="0 0 551 550" width="551" height="550">
	<title>noun-time-5680603-svg</title>
	<style>
		.s0 { fill: #000000 } 
	</style>
	<g id="Layer">
		<path id="Layer" fill-rule="evenodd" class="s0" d="m540 275c0 146.7-119.3 266-266 266-146.7 0-266-119.3-266-266 0-146.7 119.3-266 266-266 146.7 0 266 119.3 266 266zm-53.2 0c0-117.3-95.5-212.8-212.8-212.8-117.3 0-212.8 95.5-212.8 212.8 0 117.3 95.5 212.8 212.8 212.8 117.3 0 212.8-95.5 212.8-212.8z"/>
		<path id="Layer" class="s0" d="m296.4 109.8h-44.8v174.5l93.4 93.3 31.6-31.6-80.2-80.3z"/>
	</g>
</svg>