<svg version="1.2" xmlns="http://www.w3.org/2000/svg" viewBox="0 0 339 338" width="339" height="338">
	<title>noun-close-5612533-svg</title>
	<style>
		.s0 { fill: #000000 } 
	</style>
	<g id="Layer">
		<path id="Layer" fill-rule="evenodd" class="s0" d="m12.5 13.5c9.1-9.1 23.9-9.1 33 0l123.5 123.5 123.5-123.5c9.1-9.1 23.9-9.1 33 0 9.1 9.1 9.1 23.9 0 33l-123.5 123.5 123.5 123.5c9.1 9.1 9.1 23.9 0 33-9.1 9.1-23.9 9.1-33 0l-123.5-123.5-123.5 123.5c-9.1 9.1-23.9 9.1-33 0-9.1-9.1-9.1-23.9 0-33l123.5-123.5-123.5-123.5c-9.1-9.1-9.1-23.9 0-33z"/>
	</g>
</svg>