<svg version="1.2" xmlns="http://www.w3.org/2000/svg" viewBox="0 0 546 572" width="546" height="572">
	<title>noun-contacts-2170942-svg</title>
	<style>
		.s0 { fill: #000000 } 
	</style>
	<g id="Layer">
		<path id="Layer" class="s0" d="m537.5 235.5v105c0 4.6-1.8 9.1-5.1 12.4-3.3 3.3-7.8 5.1-12.4 5.1h-8.8l0.1-140h8.7c4.6 0 9.1 1.8 12.4 5.1 3.3 3.3 5.1 7.8 5.1 12.4z"/>
		<path id="Layer" fill-rule="evenodd" class="s0" d="m493.8 31.5l-0.1 513.1c-9.7 14.6-26.1 23.4-43.7 23.4h-385c-13.9 0-27.3-5.5-37.1-15.4-9.9-9.8-15.4-23.2-15.4-37.1v-455c0-13.9 5.5-27.3 15.4-37.1 9.8-9.9 23.2-15.4 37.1-15.4h385c17.6 0 34 8.8 43.7 23.5zm-267.1 155.6c-8.2 8.2-12.8 19.3-12.8 30.9 0 11.6 4.6 22.7 12.8 30.9 8.2 8.2 19.3 12.8 30.9 12.8 11.6 0 22.7-4.6 30.9-12.8 8.2-8.2 12.9-19.3 12.9-30.9 0-11.6-4.7-22.7-12.9-30.9-8.2-8.2-19.3-12.9-30.9-12.9-11.6 0-22.7 4.7-30.9 12.9zm127.2 188.4c-0.1-20.9-8.4-40.9-23.2-55.6-14.7-14.8-34.7-23.1-55.6-23.2h-35c-20.9 0.1-40.9 8.4-55.6 23.2-14.8 14.7-23.1 34.7-23.1 55.6v17.5c0 4.8 3.9 8.7 8.7 8.7h175c2.3 0 4.5-0.9 6.2-2.5 1.6-1.7 2.6-3.9 2.6-6.2z"/>
		<path id="Layer" class="s0" d="m537.5 410.5v70c0 4.6-1.8 9.1-5.1 12.4-3.3 3.3-7.8 5.1-12.4 5.1h-8.8l0.1-105h8.7c4.6 0 9.1 1.8 12.4 5.1 3.3 3.3 5.1 7.8 5.1 12.4z"/>
		<path id="Layer" class="s0" d="m537.5 95.5v70c0 4.6-1.8 9.1-5.1 12.4-3.3 3.3-7.8 5.1-12.4 5.1h-8.8l0.1-105h8.7c4.6 0 9.1 1.8 12.4 5.1 3.3 3.3 5.1 7.8 5.1 12.4z"/>
	</g>
</svg>