<svg version="1.2" xmlns="http://www.w3.org/2000/svg" viewBox="0 0 576 572" width="576" height="572">
	<title>noun-fingerprint-1234482-svg</title>
	<style>
		.s0 { fill: #000000 } 
	</style>
	<g id="Layer">
		<path id="Layer" class="s0" d="m508.1 115.2c-4.8-6.1-13.6-7.3-19.7-2.5-6.1 4.8-7.2 13.5-2.4 19.6 34.7 44.6 53 98.1 53 154.7 0 31.5-5.7 62.2-17 91.3-2.8 7.2 0.7 15.3 7.9 18.1 1.7 0.7 3.4 1 5.1 1 5.6 0 10.9-3.4 13-9 12.6-32.3 19-66.4 19-101.4 0-62.9-20.4-122.3-58.9-171.8z"/>
		<path id="Layer" class="s0" d="m148 76.8c41.2-27.4 89.3-41.8 139-41.8 50 0 98.3 14.6 139.8 42.3 2.3 1.6 5 2.3 7.7 2.3 4.5 0 9-2.2 11.7-6.2 4.3-6.4 2.5-15.1-3.9-19.4-46-30.8-99.7-47-155.3-47-55.2 0-108.6 16.1-154.4 46.4-6.5 4.3-8.3 13-4 19.4 4.3 6.5 13 8.2 19.4 4z"/>
		<path id="Layer" class="s0" d="m111.5 106.2c5.5-5.4 5.7-14.3 0.3-19.8-5.4-5.6-14.3-5.7-19.8-0.3-54.8 53.2-85 124.5-85 200.9 0 7.7 6.3 14 14 14 7.7 0 14-6.3 14-14 0-68.7 27.2-133 76.5-180.8z"/>
		<path id="Layer" class="s0" d="m490.3 378.9c-7.6-1.4-15 3.5-16.5 11.1-8.9 45.6-23.5 80.9-43.6 104.9-4.9 5.9-4.1 14.8 1.8 19.7 2.6 2.2 5.8 3.3 9 3.3 4 0 8-1.7 10.8-5.1 23-27.6 39.7-67.2 49.5-117.4 1.5-7.6-3.5-15-11.1-16.5z"/>
		<path id="Layer" class="s0" d="m380.5 83.4c-7-3.2-15.3-0.1-18.5 6.9-3.3 7-0.2 15.3 6.8 18.5 69.4 32 114.2 101.9 114.2 178.5 0 5.6 0 17.3-0.8 32.7-0.4 7.7 5.5 14.3 13.2 14.7q0.4 0 0.8 0c7.4 0 13.6-5.7 13.9-13.2 0.9-16.2 0.9-28.3 0.9-34.5 0-87.2-51.2-167.1-130.5-203.6z"/>
		<path id="Layer" class="s0" d="m91 287c0-108.1 87.9-196 196-196 7.7 0 14-6.3 14-14 0-7.7-6.3-14-14-14-123.5 0-224 100.5-224 224 0 29.4-2.8 65-24.5 79.3-6.5 4.2-8.2 12.9-4 19.4 2.7 4 7.2 6.3 11.7 6.3 2.7 0 5.3-0.8 7.7-2.4 32.9-21.6 37.1-66.2 37.1-102.6z"/>
		<path id="Layer" class="s0" d="m287 119c-29.9 0-59.3 8-84.9 23-6.7 3.9-8.9 12.5-5 19.2 3.9 6.7 12.5 8.9 19.1 5 21.4-12.6 45.9-19.2 70.8-19.2 77.2 0 140 62.8 140 140 0 60.6-10.3 172.8-79.1 243.6-5.4 5.5-5.3 14.4 0.3 19.8 2.7 2.6 6.2 3.9 9.7 3.9 3.7 0 7.3-1.4 10.1-4.2 75.7-77.9 87-198.3 87-263.1 0-92.6-75.4-168-168-168z"/>
		<path id="Layer" class="s0" d="m157.4 180.1c-24.8 30-38.4 67.9-38.4 106.9 0 7.7 6.3 14 14 14 7.7 0 14-6.3 14-14 0-32.5 11.4-64.1 32-89.1 4.9-5.9 4.1-14.8-1.9-19.7-5.9-4.9-14.8-4.1-19.7 1.9z"/>
		<path id="Layer" class="s0" d="m142.3 339.1c1.3-7.6-3.8-14.9-11.4-16.2-7.6-1.3-14.8 3.7-16.2 11.3-4.1 23.2-17.4 78.2-52.1 87.7-7.5 2.1-11.9 9.8-9.8 17.2 1.7 6.2 7.3 10.3 13.5 10.3q1.8 0 3.7-0.5c35.8-9.8 61.5-48.8 72.3-109.8z"/>
		<path id="Layer" class="s0" d="m384.5 319.2c-7.8-0.5-14.5 5.2-15.1 12.9-5.4 65.9-27.1 155.7-99.8 209.5-6.2 4.6-7.5 13.4-2.9 19.6 2.7 3.7 7 5.6 11.3 5.6 2.9 0 5.8-0.8 8.3-2.7 81.1-60 105.1-158.1 111-229.8 0.6-7.7-5.1-14.4-12.8-15.1z"/>
		<path id="Layer" class="s0" d="m203 287c0-46.3 37.7-84 84-84 32.3 0 62.1 18.8 75.9 48 3.3 7 11.7 9.9 18.7 6.6 7-3.3 9.9-11.6 6.6-18.6-18.5-38.9-58.2-64-101.2-64-61.8 0-112 50.2-112 112 0 27.3-3.7 163.9-75.8 177.1-7.6 1.4-12.6 8.7-11.2 16.3 1.2 6.8 7.1 11.5 13.7 11.5q1.3 0 2.6-0.2c91.6-16.9 98.7-160.9 98.7-204.7z"/>
		<path id="Layer" class="s0" d="m284.7 457.5c-6.8-3.7-15.3-1.2-19 5.5-16.4 29.8-38.9 50.5-68.9 63.3-7.1 3.1-10.4 11.3-7.4 18.4 2.3 5.3 7.5 8.5 12.9 8.5 1.8 0 3.7-0.3 5.5-1.1 36-15.4 62.9-40.1 82.4-75.6 3.7-6.8 1.3-15.3-5.5-19z"/>
		<path id="Layer" class="s0" d="m293.3 436.3c1.9 0.8 3.9 1.2 5.8 1.2 5.3 0 10.4-3 12.8-8.2 28.9-63.4 31.1-124.9 31.1-142.3 0-30.9-25.1-56-56-56-30.9 0-56 25.1-56 56 0 7.7 6.3 14 14 14 7.7 0 14-6.3 14-14 0-15.4 12.6-28 28-28 15.4 0 28 12.6 28 28 0 15.9-2.1 72.4-28.6 130.7-3.2 7-0.1 15.3 6.9 18.6z"/>
		<path id="Layer" class="s0" d="m252.5 366.3c1.2-7.7-4-14.8-11.7-16-7.6-1.2-14.8 4-15.9 11.7-9.3 59.2-31.5 130.3-85.3 132.9-7.7 0.4-13.7 7-13.3 14.7 0.4 7.5 6.6 13.3 14 13.3q0.3 0 0.7 0c57.4-2.8 96-57 111.5-156.6z"/>
	</g>
</svg>