<svg version="1.2" xmlns="http://www.w3.org/2000/svg" viewBox="0 0 549 561" width="549" height="561">
	<title>gear-svg</title>
	<style>
		.s0 { fill: #000000 } 
	</style>
	<g id="Layer">
		<path id="Layer" fill-rule="evenodd" class="s0" d="m541.6 246.4v66.6c0 9-6.2 16.3-15.2 18l-59.3 10c-3.4 10.7-7.9 21.3-12.9 30.8l34.7 48.8c5.6 7.2 4.5 17.3-1.7 23.5l-47.6 47.6c-6.1 6.1-16.2 6.7-23.5 1.7l-48.7-34.8c-10.1 5.1-20.2 9.6-30.8 12.9l-9.5 59.9c-1.7 9-9 15.2-17.9 15.2h-67.2c-9 0-16.3-6.2-18-15.2l-10-59.3c-10.7-3.4-21.3-7.9-30.8-12.9l-48.8 34.7c-7.2 5.6-17.3 4.5-23.5-1.7l-47.6-47.6c-6.1-6.1-6.7-16.2-1.7-23.5l34.8-48.7c-5.1-10.1-9.6-20.2-12.9-30.8l-59.4-10.1c-8.9-1.7-15.1-8.9-15.1-17.9v-67.2c0-9 6.2-16.2 15.1-17.9l58.8-9.5c3.4-10.7 7.9-21.3 12.9-30.8l-34.7-48.8c-5.6-7.2-4.5-17.3 1.7-23.5l47.6-47.6c6.1-6.1 16.2-6.7 23.5-1.7l48.7 34.8c10.1-5.1 20.2-9.6 30.8-12.9l10.1-59.4c1.7-8.9 8.9-15.1 17.9-15.1h67.2c9 0 16.2 6.2 17.9 15.1l9.5 58.8c10.7 3.4 21.3 7.9 30.8 12.9l48.8-34.7c7.2-5.6 17.3-4.5 23.5 1.7l47.6 47.6c6.1 6.1 6.7 16.2 1.7 23.5l-34.8 48.7c5.1 10.1 9.6 20.2 12.9 30.8l59.4 10.1c8.9 1.7 15.1 8.9 15.7 17.9zm-170.8 33.6c0-53.2-43.2-95.8-95.8-95.8-52.6 0-95.8 42.6-95.8 95.8 0 52.6 42.6 95.8 95.8 95.8 53.2 0 95.8-42.6 95.8-95.8z"/>
	</g>
</svg>