<svg version="1.2" xmlns="http://www.w3.org/2000/svg" viewBox="0 0 541 539" width="541" height="539">
	<title>home2-svg</title>
	<style>
		.s0 { fill: #000000 } 
	</style>
	<g id="Layer">
		<path id="Layer" fill-rule="evenodd" class="s0" d="m196.4 33.3c44.4-34.4 106.8-34.4 151.2 0l140 108.6c29.6 22.9 46.9 58 46.9 95.3v174.2c0 67.1-55.1 121.1-122.5 121.1h-280c-67.4 0-122.5-54-122.5-121.1v-174.2c0-37.3 17.3-72.4 46.9-95.3zm129.8 27.6c-31.8-24.6-76.6-24.6-108.3 0l-140 108.6c-21.2 16.4-33.4 41.3-33.4 67.7v174.1c0 47.4 39 86.2 87.5 86.2h280c48.5 0 87.5-38.8 87.5-86.2v-174.1c0-26.4-12.3-51.3-33.4-67.7z"/>
	</g>
</svg>