<svg version="1.2" xmlns="http://www.w3.org/2000/svg" viewBox="0 0 551 547" width="551" height="547">
	<title>noun-home-5587485-svg-svg</title>
	<style>
		.s0 { fill: #000000 } 
	</style>
	<g id="Layer">
		<path id="Layer" fill-rule="evenodd" class="s0" d="m87.3 543.3c-19.3 0-35-15.6-35-35v-198.3h-11.6c-19.4 0-35-15.7-35-35v-23.3c0-9.9 4.2-19.4 11.5-26.1l233.4-210c13.3-11.9 33.5-11.9 46.8 0l233.4 210c7.3 6.7 11.5 16.2 11.5 26.1v23.3c0 19.3-15.6 35-35 35h-11.6v198.3c0 19.4-15.7 35-35 35h-93.4c-19.3 0-35-15.6-35-35v-140c0-6.4-5.2-11.6-11.6-11.6h-93.4c-6.4 0-11.6 5.2-11.6 11.6v140c0 19.4-15.7 35-35 35zm105-35v-140c0-19.3 15.6-35 35-35h93.3c19.3 0 35 15.7 35 35v140c0 6.5 5.2 11.7 11.7 11.7h93.3c6.4 0 11.7-5.2 11.7-11.7v-210c0-3.1 1.2-6 3.4-8.2 2.2-2.2 5.2-3.4 8.2-3.4h23.4c6.4 0 11.6-5.3 11.6-11.7v-23.3c0-3.3-1.4-6.5-3.8-8.7l-233.4-210c-4.4-4-11.1-4-15.6 0l-233.3 210c-2.5 2.2-3.9 5.4-3.9 8.7v23.3c0 6.4 5.3 11.7 11.7 11.7h23.3c6.5 0 11.7 5.2 11.7 11.6v210c0 6.5 5.2 11.7 11.7 11.7h93.3c6.4 0 11.7-5.2 11.7-11.7z"/>
		<g id="b">
		</g>
	</g>
</svg>