<svg version="1.2" xmlns="http://www.w3.org/2000/svg" viewBox="0 0 505 503" width="505" height="503">
	<title>noun-home-5587506-svg-svg</title>
	<style>
		.s0 { fill: #000000 } 
	</style>
	<g id="Layer">
		<path id="Layer" fill-rule="evenodd" class="s0" d="m181 496h-116.7c-6.4 0-11.6-5.2-11.6-11.7v-221.6h-35c-6.5 0-11.7-5.3-11.7-11.7v-23.3c0-3.3 1.4-6.5 3.9-8.7l233.3-210c4.4-4 11.2-4 15.6 0l233.3 210c2.5 2.2 3.9 5.4 3.9 8.7v23.3c0 6.4-5.2 11.7-11.7 11.7h-35v221.6c0 6.5-5.2 11.7-11.6 11.7h-116.7c-6.4 0-11.7-5.2-11.7-11.7v-163.3c0-6.4-5.2-11.7-11.6-11.7h-93.4c-6.4 0-11.6 5.3-11.6 11.7v163.3c0 6.5-5.3 11.7-11.7 11.7z"/>
		<g id="b">
		</g>
	</g>
</svg>