<svg version="1.2" xmlns="http://www.w3.org/2000/svg" viewBox="0 0 549 428" width="549" height="428">
	<title>noun-invisible-4487834-svg</title>
	<style>
		.s0 { fill: #000000 } 
	</style>
	<g id="Layer">
		<path id="Layer" fill-rule="evenodd" class="s0" d="m14.2 265.2c0-67.6 27.5-128.9 71.8-173.3 44.4-44.3 105.6-71.8 173.3-71.8 67.7 0 129 27.5 173.3 71.8 8 8 15.5 16.6 22.3 25.6l68-39.2 12.9 22.2-505.4 291.8-12.9-22.3 107.8-62.2c-4.3-13.4-6.6-27.7-6.6-42.5 0-77.7 63-140.7 140.6-140.7 41.2 0 78.2 17.7 103.9 45.8l69.2-39.9q-8.3-10.7-18-20.3c-39.7-39.7-94.5-64.3-155.1-64.3-60.5 0-115.4 24.6-155 64.3-39.7 39.7-64.3 94.5-64.3 155.1h-25.7zm375.4-52.8c6.6 16.3 10.3 34.1 10.3 52.8 0 77.6-63 140.6-140.7 140.6-45 0-85.1-21.2-110.8-54.1zm91-52.6c15.2 31.9 23.7 67.6 23.7 105.3h-25.7c0-33-7.3-64.3-20.4-92.3l22.4-13z"/>
	</g>
</svg>