<svg version="1.2" xmlns="http://www.w3.org/2000/svg" viewBox="0 0 383 460" width="383" height="460">
	<title>noun-language-3844714-svg</title>
	<style>
		.s0 { fill: #000000 } 
	</style>
	<path id="Layer" fill-rule="evenodd" class="s0" d="m126 198.4c-23.4 19.5-50.8 33.4-80.3 40.6q-1.8 0.3-3.5 0c-4.7 0.5-9.3-0.9-13-3.8-3.6-3-5.9-7.2-6.4-11.9-0.5-4.6 0.9-9.2 3.8-12.9 3-3.6 7.2-5.9 11.9-6.4 23.1-6 44.7-17 63.2-32.2-12.5-14.4-23.5-30.1-32.8-46.7-2.6-4.2-3.4-9.3-2-14.1 1.3-4.7 4.6-8.7 9-10.9 4.4-2.2 9.6-2.5 14.2-0.7 4.6 1.8 8.2 5.5 10 10.1 7.8 14.4 17.1 27.9 27.6 40.4 19.7-19.6 35.8-42.4 47.6-67.5h-132.8c-6.2 0-12-3.4-15.1-8.8-3.2-5.4-3.2-12.1 0-17.5 3.1-5.4 8.9-8.7 15.1-8.7h61.3v-22.3c0-6.2 3.3-12 8.7-15.1 5.4-3.1 12.1-3.1 17.5 0 5.4 3.1 8.8 8.9 8.8 15.1v21.9h61.2c5.5 0 10.7 2.6 14 7 3.5 4.3 4.8 9.9 3.5 15.3-12.8 39.7-35.1 75.8-65.1 105 14.7 14.2 32.7 24.5 52.5 29.9 6.3 0.7 11.7 4.6 14.2 10.4 2.5 5.8 1.8 12.4-1.9 17.5-3.7 5.1-9.9 7.8-16.1 7.1q-2 0.2-3.9 0c-26.9-7.2-51.4-21.2-71.2-40.8zm238.1 256.7c-4.3 1.7-9.1 1.6-13.3-0.3-4.2-1.9-7.5-5.3-9.2-9.6l-21.9-55.7h-83.3l-18.9 48.8c-2.3 5.8-7.6 10-13.7 10.9-6.2 0.9-12.4-1.6-16.3-6.5-3.9-4.9-4.9-11.5-2.5-17.3l78.3-196.7h0.1c1.3-3.3 3.5-6.1 6.4-8 2.9-2 6.3-3 9.8-3 3.6 0 7 1 9.9 3 2.9 2 5.1 4.9 6.4 8.2l79.1 203.5c1.7 4.4 1.5 9.4-0.6 13.7-2 4.2-5.7 7.5-10.3 9zm-58-100.6l-27.5-70.9-28.2 70.9z"/>
</svg>