<svg version="1.2" xmlns="http://www.w3.org/2000/svg" viewBox="0 0 383 476" width="383" height="476">
	<title>lock-svg</title>
	<style>
		.s0 { fill: #000000 } 
	</style>
	<path id="Layer" fill-rule="evenodd" class="s0" d="m333 144.7v47.8c26.6 5.5 46.7 29.1 46.7 57.2v163.3c0 32.1-26.2 58.3-58.4 58.3h-256.6c-32.1 0-58.4-26.2-58.4-58.3v-163.3c0-28.1 20.1-51.7 46.7-57.2v-47.8c0-77.2 62.8-140 140-140 77.2 0 140 62.8 140 140zm-256.7 0v46.6h233.4v-46.6c0-64.6-52.1-116.7-116.7-116.7-64.6 0-116.7 52.1-116.7 116.7zm-46.6 105v163.3c0 19.6 15.4 35 35 35h256.6c19.6 0 35-15.4 35-35v-163.3c0-19.6-15.4-35-35-35h-256.6c-19.6 0-35 15.4-35 35z"/>
</svg>