<?xml version="1.0" encoding="utf-8"?>
<!-- Generator: Adobe Illustrator 24.0.1, SVG Export Plug-In . SVG Version: 6.00 Build 0)  -->
<svg version="1.1" id="Layer_1" xmlns="http://www.w3.org/2000/svg" xmlns:xlink="http://www.w3.org/1999/xlink" x="0px" y="0px"
	 viewBox="0 0 427 519" style="enable-background:new 0 0 427 519;" xml:space="preserve">
<style type="text/css">
	.st0{fill-rule:evenodd;clip-rule:evenodd;}
</style>
<path class="st0" d="M427,266.7L7.2,12.6v499.1h405.1l-257.5-245H427z M44.1,160.3c2.2,17,10.9,31.9,23.5,42.2l9.8-2.5l-12.7-13.3
	l18.2,2.2L75.8,172l16.1,8.7l-0.5-18.4l12,13.9l6.2-17.3l6.2,17.3l12-13.9l-0.5,18.4l16.1-8.6l-7.1,16.9l18.2-2.2L141.8,200
	l10.1,2.6c12.6-10.5,21.3-25.4,23.6-42.3c0.4,3,0.6,6,0.6,9c0,36.6-29.7,66.3-66.3,66.3c-36.7,0-66.4-29.7-66.4-66.3
	C43.4,166.3,43.7,163.3,44.1,160.3z M173.3,344.8l-16.4,23.7l26,12.2l-26,12.2l16.4,23.6l-28.6-2.4l2.4,28.6l-23.6-16.4l-12.2,26
	l-12.2-26l-23.6,16.4l2.5-28.6l-28.7,2.4l16.5-23.6l-26.2-12.2l26.2-12.2l-16.5-23.7l28.7,2.5l-2.5-28.6L99.1,335l12.2-26l12.2,26
	l23.6-16.3l-2.4,28.6L173.3,344.8z"/>
</svg>
