<?xml version="1.0" encoding="utf-8"?>
<!-- Generator: Adobe Illustrator 24.0.1, SVG Export Plug-In . SVG Version: 6.00 Build 0)  -->
<svg version="1.1" id="Layer_1" xmlns="http://www.w3.org/2000/svg" xmlns:xlink="http://www.w3.org/1999/xlink" x="0px" y="0px"
	 viewBox="0 0 427 519" style="enable-background:new 0 0 427 519;" xml:space="preserve">
<style type="text/css">
	.st0{fill-rule:evenodd;clip-rule:evenodd;fill:#003893;}
	.st1{fill-rule:evenodd;clip-rule:evenodd;fill:#DC143C;}
	.st2{fill-rule:evenodd;clip-rule:evenodd;fill:#FFFFFF;}
</style>
<title>noun-flag-of-nepal-701214-svg</title>
<g id="Layer_2_">
	<g>
		<path id="Layer_15_" class="st0" d="M154.8,266.7l257.5,245H7.2V12.6L427,266.7H154.8z"/>
	</g>
</g>
<polygon class="st1" points="364.2,495 23.3,493.7 23.3,42.1 353.7,250.6 113.6,250.6 "/>
<path class="st2" d="M43.4,169.3c0,36.6,29.7,66.3,66.4,66.3c36.6,0,66.3-29.7,66.3-66.3c0-3-0.2-6-0.6-9
	c-2.3,16.9-11,31.8-23.6,42.3l-10.1-2.6l12.7-13.2l-18.2,2.2l7.1-16.9l-16.1,8.6l0.5-18.4l-12,13.9l-6.2-17.3l-6.2,17.3l-12-13.9
	l0.5,18.4L75.8,172l7.1,16.9l-18.2-2.2L77.4,200l-9.8,2.5c-12.6-10.3-21.3-25.2-23.5-42.2C43.7,163.3,43.4,166.3,43.4,169.3
	L43.4,169.3z"/>
<polyline class="st2" points="144.7,347.3 147.1,318.7 123.5,335 111.3,309 99.1,335 75.5,318.7 78,347.3 49.3,344.8 65.8,368.5 
	39.6,380.7 65.8,392.9 49.3,416.5 78,414.1 75.5,442.7 99.1,426.3 111.3,452.3 123.5,426.3 147.1,442.7 144.7,414.1 173.3,416.5 
	156.9,392.9 182.9,380.7 156.9,368.5 173.3,344.8 "/>
</svg>
