<svg version="1.2" xmlns="http://www.w3.org/2000/svg" viewBox="0 0 422 429" width="422" height="429">
	<title>noun-plus-2310577-svg</title>
	<style>
		.s0 { fill: #000000 } 
	</style>
	<g id="Layer">
		<path id="Layer" class="s0" d="m212 6.8c-12.4 0-22.4 10-22.4 22.4v162.4h-162.4c-12.4 0-22.4 10-22.4 22.4 0 12.4 10 22.4 22.4 22.4h162.4v162.4c0 12.4 10 22.4 22.4 22.4 12.4 0 22.4-10 22.4-22.4v-162.4h162.4c12.4 0 22.4-10 22.4-22.4 0-12.4-10-22.4-22.4-22.4h-162.4v-162.4c0-12.4-10-22.4-22.4-22.4z"/>
	</g>
</svg>