<svg version="1.2" xmlns="http://www.w3.org/2000/svg" viewBox="0 0 500 499" width="500" height="499">
	<title>noun-barcode-5587674-svg</title>
	<style>
		.s0 { fill: #000000 } 
	</style>
	<g id="Layer">
		<path id="Layer" class="s0" d="m84.7 62.3c-12.9 0-23.4 10.5-23.4 23.4v46.6c0 12.9-10.4 23.4-23.3 23.4-12.9 0-23.3-10.5-23.3-23.4v-46.6c0-38.7 31.3-70 70-70h46.6c12.9 0 23.4 10.4 23.4 23.3 0 12.9-10.5 23.3-23.4 23.3z"/>
		<path id="Layer" class="s0" d="m341.3 39c0-12.9 10.5-23.3 23.4-23.3h46.6c38.7 0 70 31.3 70 70v46.6c0 12.9-10.4 23.4-23.3 23.4-12.9 0-23.3-10.5-23.3-23.4v-46.6c0-12.9-10.5-23.4-23.4-23.4h-46.6c-12.9 0-23.4-10.4-23.4-23.3z"/>
		<path id="Layer" class="s0" d="m38 342.3c12.9 0 23.3 10.5 23.3 23.4v46.6c0 12.9 10.5 23.4 23.4 23.4h46.6c12.9 0 23.4 10.4 23.4 23.3 0 12.9-10.5 23.3-23.4 23.3h-46.6c-38.7 0-70-31.3-70-70v-46.6c0-12.9 10.4-23.4 23.3-23.4z"/>
		<path id="Layer" class="s0" d="m458 342.3c12.9 0 23.3 10.5 23.3 23.4v46.6c0 38.7-31.3 70-70 70h-46.6c-12.9 0-23.4-10.4-23.4-23.3 0-12.9 10.5-23.3 23.4-23.3h46.6c12.9 0 23.4-10.5 23.4-23.4v-46.6c0-12.9 10.4-23.4 23.3-23.4z"/>
		<path id="Layer" fill-rule="evenodd" class="s0" d="m84.7 109c0-12.9 10.4-23.3 23.3-23.3h93.3c12.9 0 23.4 10.4 23.4 23.3v93.3c0 12.9-10.5 23.4-23.4 23.4h-93.3c-12.9 0-23.3-10.5-23.3-23.4zm93.3 70v-46.6h-46.7v46.6z"/>
		<path id="Layer" fill-rule="evenodd" class="s0" d="m108 412.3c-12.9 0-23.3-10.4-23.3-23.3v-93.3c0-12.9 10.4-23.4 23.3-23.4h93.3c12.9 0 23.4 10.5 23.4 23.4v93.3c0 12.9-10.5 23.3-23.4 23.3zm23.4-93.3v46.7h46.6v-46.7z"/>
		<path id="Layer" fill-rule="evenodd" class="s0" d="m271.3 109c0-12.9 10.5-23.3 23.4-23.3h93.3c12.9 0 23.3 10.4 23.3 23.3v93.3c0 12.9-10.4 23.4-23.3 23.4h-93.3c-12.9 0-23.4-10.5-23.4-23.4zm93.4 70v-46.6h-46.7v46.6z"/>
		<path id="Layer" fill-rule="evenodd" class="s0" d="m294.7 412.3c-12.9 0-23.4-10.4-23.4-23.3v-93.3c0-12.9 10.5-23.4 23.4-23.4h93.3c12.9 0 23.3 10.5 23.3 23.4v93.3c0 12.9-10.4 23.3-23.3 23.3zm23.3-93.3v46.7h46.7v-46.7z"/>
	</g>
</svg>