<svg xmlns="http://www.w3.org/2000/svg" viewBox="0 0 47.24 52.61"><defs><style>.cls-1{fill:none;stroke:#000;stroke-miterlimit:10;stroke-width:2px;}</style></defs><title>Asset 4</title><g id="Layer_2" data-name="Layer 2"><g id="Layer_1-2" data-name="Layer 1"><path class="cls-1" d="M29.61,35c2.15-1.52,4.15-3.56,4.59-6.14s-1.33-5.64-4-5.7a7.11,7.11,0,0,0-4,1.66Q21.69,28,17.4,31.45a1,1,0,0,0-.41.49c-.12.37.15.73.4,1L31.92,49.79a5.42,5.42,0,0,1-.76,1.38c-1.86-1.76-3.82-3.45-5.7-5.21l-5.81-5.42c-3.49-3.26-7.1-6.46-10.31-10a33.58,33.58,0,0,1-5.16-7.24A9.9,9.9,0,0,1,3,19.57,4.55,4.55,0,0,1,4.2,16a5.31,5.31,0,0,1,4.16-1.18c2.29.17,4.76,1.42,5.33,3.65a6.32,6.32,0,0,0,4.68-5A4.82,4.82,0,0,0,15.84,8.2a7.51,7.51,0,0,0-2.91-.38L1,7.84V1H46.24V7.83l-25,0a22.05,22.05,0,0,1,2.56,12,14.69,14.69,0,0,1,7-1.89,8.67,8.67,0,0,1,6.51,2.94,9.39,9.39,0,0,1,1.77,6.78,13.66,13.66,0,0,1-6.82,10.47Z"/></g></g></svg>