<svg id="Layer_1" data-name="Layer 1" xmlns="http://www.w3.org/2000/svg" viewBox="0 0 46.25 51.46"><title>rupee 2</title><path d="M595.5,243c1.23-.3,2.38-1.35,3.45-3.17a9.12,9.12,0,0,0,1.5-4.57,3.94,3.94,0,0,0-2.42-3.78,8.47,8.47,0,0,0-2.09-.44c-1.43,0-3.28.94-5.53,2.82l-.3.26a2.36,2.36,0,0,0-.32.29,1.75,1.75,0,0,0-.33.28l-.11.11s0,0-.06,0l-.09.08-.05,0-.13.11-.66.59-.19.15-.11.11L588,236s0,0-.07,0,0,0,0,0l-.26.26c-1,.66-1.89,1.22-2.71,1.67-1.46.82-2.19,1.52-2.19,2.11a1.81,1.81,0,0,0,.55,1.19L598,258.17l-.9,1.6L579.84,243.4a84.63,84.63,0,0,1-7.74-8.28q-3.74-4.62-3.6-8.81.11-3.5,4.68-4,5,0,6.13,3.78A5.43,5.43,0,0,0,584,222a8.2,8.2,0,0,0,.18-1.63,5.48,5.48,0,0,0-2.79-5h-15v-7H612.6v7H587a18,18,0,0,1,2.53,7.38c.12,1.44.18,3.12.18,5a9.5,9.5,0,0,1,6.3-2q9.39,0,9.34,9a13,13,0,0,1-3.71,9.14,9.14,9.14,0,0,1-3.3,2.37Z" transform="translate(-566.35 -208.31)"/></svg>