<svg version="1.2" xmlns="http://www.w3.org/2000/svg" viewBox="0 0 700 564" width="700" height="564">
	<title>noun-settings-5591436-svg-svg</title>
	<style>
		.s0 { fill: #000000 } 
	</style>
	<g id="Layer">
		<path id="Layer" fill-rule="evenodd" class="s0" d="m402.6 16.4l10 60.6q9.4 2.9 18.6 6.7 9.3 3.8 18.1 8.5l49.9-35.8c5-3.6 12-3.1 16.5 1.4l27.6 27.5 28.9 28.9c4.4 4.4 5.1 11.4 1.4 16.6l-35.8 49.9q4.6 8.8 8.5 18 3.8 9.1 6.7 18.7l59.7 9.8c6.6 0.6 11.7 6.1 11.7 12.9v79.8c0 6.2-4.5 11.6-10.8 12.7l-60.6 10q-2.9 9.4-6.7 18.6-3.9 9.3-8.5 18.1l35.1 49c4.4 5.1 4.1 12.7-0.6 17.5l-56.5 56.4h-0.1c-4.3 4.4-11.3 5.1-16.5 1.4l-49.9-35.8q-8.8 4.6-18 8.5-9.1 3.8-18.7 6.7l-9.9 59.7c-0.6 6.5-6.1 11.7-12.8 11.7h-79.8v-0.1c-6.2 0-11.7-4.4-12.7-10.7l-10-60.6q-9.5-2.9-18.7-6.8-9.2-3.8-18.1-8.5l-48.9 35.2c-5.1 4.3-12.7 4.1-17.5-0.7l-56.5-56.5c-4.3-4.3-5-11.4-1.3-16.5l35.8-49.9q-4.7-8.8-8.5-18.1-3.8-9.2-6.7-18.7l-60.6-10c-6.1-0.9-10.7-6.2-10.7-12.6l-0.1-39.9 0.1-39.3c-0.3-6.5 4.2-12.3 10.7-13.3l60.6-10q2.9-9.6 6.7-18.7 3.8-9.2 8.5-18l-35.6-49.6c-3.9-5.1-3.5-12.3 1.1-16.9l28.3-28.3 27.6-27.5c4.3-4.9 11.8-5.9 17.2-2l49.9 35.7q8.8-4.6 18.1-8.5 9.1-3.7 18.6-6.7l9.9-59.6c0.6-6.6 6.1-11.7 12.8-11.7h79.8c6.2 0 11.7 4.5 12.7 10.8zm-14.1 72.4l-9.5-57.5h-58l-9.6 57.8c-0.8 5.2-4.6 9.1-9.4 10.4-8.1 2.1-15.9 4.7-23.4 7.9-7.7 3.1-15.1 6.8-22.4 11-4.5 2.6-9.9 2.2-13.9-0.7v0.1l-47.7-34.2-20.5 20.5h0.1l-20.6 20.6 34.2 47.6c3.2 4.5 3.1 10.3 0.3 14.7-4 6.8-7.6 14-10.7 21.5-3.1 7.6-5.8 15.5-7.9 23.5-1.3 5.2-5.7 8.8-10.7 9.4l-57.5 9.5v58.1l57.9 9.5c5.1 0.9 9.1 4.7 10.3 9.4 2.1 8.1 4.8 16 7.9 23.5 3.2 7.6 6.9 15.1 11.1 22.3 2.7 4.8 2.1 10.5-1.1 14.5l-33.8 47.1 41.1 41.1 47.6-34.2c4.3-3 9.7-3.1 13.9-0.7 7.2 4.1 14.6 7.8 22.4 11 7.5 3.2 15.4 5.9 23.5 8 5.3 1.4 8.9 5.9 9.4 11l9.5 57.2h58l9.6-57.8c0.8-5.2 4.6-9.1 9.4-10.4q12-3.2 23.4-7.9 11.7-4.9 22.4-11.1c4.7-2.7 10.4-2.1 14.5 1.1l47 33.8 41.1-41.1-34.2-47.6c-3-4.3-3.1-9.7-0.7-14 4.2-7.2 7.9-14.6 11.1-22.3 3.1-7.5 5.8-15.4 7.9-23.4 1.4-5.2 5.7-8.8 10.7-9.5l57.5-9.5v-58.1l-57.9-9.5c-5.1-0.8-9-4.6-10.3-9.4-2.1-8-4.8-15.8-7.9-23.5q-4.8-11.5-11.1-22.2c-2.6-4.5-2.1-9.9 0.7-13.9l34.2-47.7-20.6-20.5-0.6-0.7-19.8-19.8-47.7 34.1c-4.5 3.2-10.3 3.1-14.6 0.3q-10.5-6.1-21.6-10.7c-7.5-3.1-15.4-5.8-23.5-7.9-5.2-1.4-8.8-5.7-9.4-10.7zm-22.5 282.6c7-1.2 13.7 3.5 14.8 10.5 1.2 7-3.5 13.6-10.5 14.8q-5.1 0.9-10.1 1.3l-0.3 0.1q-5 0.4-10 0.4c-32.7 0-62.3-13.3-83.7-34.7-21.4-21.5-34.7-51.1-34.7-83.8 0-32.7 13.2-62.3 34.7-83.7 21.4-21.5 51-34.7 83.8-34.7 32.6 0 62.3 13.2 83.7 34.7 21.4 21.4 34.7 51 34.7 83.7q0 7.1-0.9 14.1-0.8 6.8-2.5 13.8c-1.6 6.9-8.6 11.1-15.4 9.5-6.9-1.7-11.1-8.6-9.5-15.5q1.2-5.1 1.9-10.8 0.7-5.4 0.7-11.1c0-25.6-10.4-48.8-27.2-65.5-16.8-16.8-39.9-27.2-65.5-27.2-25.7 0-48.9 10.4-65.6 27.2-16.8 16.7-27.2 39.9-27.2 65.5 0 25.6 10.4 48.8 27.2 65.6 16.7 16.8 39.9 27.2 65.5 27.2q4 0 7.8-0.4h0.3q4.2-0.4 8-1z"/>
		<g id="c">
		</g>
	</g>
</svg>