<svg version="1.2" xmlns="http://www.w3.org/2000/svg" viewBox="0 0 468 512" width="468" height="512">
	<title>noun-settings-5752170-svg</title>
	<style>
		.s0 { fill: #000000 } 
	</style>
	<g id="Layer">
		<path id="Layer" fill-rule="evenodd" class="s0" d="m320.5 257c0 48.3-39.2 87.5-87.5 87.5-48.3 0-87.5-39.2-87.5-87.5 0-48.3 39.2-87.5 87.5-87.5 48.3 0 87.5 39.2 87.5 87.5zm-87.5 52.5c29 0 52.5-23.5 52.5-52.5 0-29-23.5-52.5-52.5-52.5-29 0-52.5 23.5-52.5 52.5 0 29 23.5 52.5 52.5 52.5z"/>
		<path id="Layer" fill-rule="evenodd" class="s0" d="m280.9 18.3c15.8 7.4 34.2 18.3 57.2 31.9l17.6 10.4c23 13.6 41.4 24.5 55.5 34.9 14.7 10.8 25.9 21.8 34.1 36.2 8.1 14.5 11.7 29.9 13.5 48.2 1.7 17.7 1.7 39.5 1.7 66.7v20.8c0 27.2 0 49-1.7 66.7-1.8 18.3-5.4 33.7-13.5 48.2-8.2 14.4-19.4 25.4-34.1 36.2-14.1 10.4-32.5 21.3-55.5 34.9l-17.6 10.4c-23 13.6-41.4 24.5-57.2 31.9-16.4 7.6-31.5 12.1-47.9 12.1-16.4 0-31.5-4.5-47.9-12.1-15.8-7.4-34.2-18.3-57.2-31.9l-17.6-10.4c-23-13.6-41.4-24.5-55.6-34.9-14.6-10.8-25.8-21.8-34-36.2-8.1-14.5-11.7-29.9-13.5-48.2-1.7-17.7-1.7-39.5-1.7-66.7v-20.8c0-27.2 0-49 1.7-66.7 1.8-18.3 5.4-33.7 13.5-48.2 8.2-14.4 19.4-25.4 34-36.2 14.2-10.4 32.6-21.3 55.6-34.9l17.6-10.4c23-13.6 41.4-24.5 57.2-31.9 16.4-7.6 31.5-12.1 47.9-12.1 16.4 0 31.5 4.5 47.9 12.1zm-152 72c-24 14.1-40.8 24.2-53.4 33.4-12.3 9-19.4 16.6-24.3 25.2-4.8 8.7-7.7 18.8-9.2 34.3-1.5 15.9-1.5 36-1.5 64.3v19c0 28.3 0 48.4 1.5 64.3 1.5 15.5 4.4 25.6 9.2 34.3 4.9 8.6 12 16.2 24.3 25.2 12.6 9.2 29.4 19.3 53.4 33.4l16 9.5c24 14.2 40.9 24.2 55 30.7 13.7 6.4 23.5 8.9 33.1 8.9 9.6 0 19.4-2.5 33.1-8.9 14.1-6.5 31-16.5 55-30.7l16-9.5c24-14.1 40.8-24.2 53.4-33.4 12.3-9 19.4-16.6 24.3-25.2 4.8-8.7 7.7-18.8 9.2-34.3 1.5-15.9 1.5-36 1.5-64.3v-19c0-28.3 0-48.4-1.5-64.3-1.5-15.5-4.4-25.6-9.2-34.3-4.9-8.6-12-16.2-24.3-25.2-12.6-9.2-29.4-19.3-53.4-33.4l-16-9.5c-24-14.2-40.9-24.2-55-30.8-13.7-6.3-23.5-8.8-33.1-8.8-9.6 0-19.4 2.5-33.1 8.8-14.1 6.6-31 16.6-55 30.8z"/>
	</g>
</svg>