<svg version="1.2" xmlns="http://www.w3.org/2000/svg" viewBox="0 0 333 335" width="333" height="335">
	<title>noun-share-5648174-svg</title>
	<style>
		.s0 { fill: #000000 } 
	</style>
	<g id="Layer">
		<path id="Layer" fill-rule="evenodd" class="s0" d="m4.1 170c0-27.9 22.7-50.6 50.6-50.6 16.1 0 30.5 7.6 39.8 19.4l133.9-67c-1.1-4.2-1.7-8.6-1.7-13.1 0-27.9 22.7-50.6 50.6-50.6 27.9 0 50.6 22.7 50.6 50.6 0 27.9-22.7 50.6-50.6 50.6-16.1 0-30.5-7.6-39.8-19.4l-133.9 67c1.1 4.2 1.7 8.6 1.7 13.1 0 4.1-0.5 8.2-1.5 12l133.7 68.1c9.3-11.8 23.7-19.4 39.8-19.4 27.9 0 50.6 22.7 50.6 50.6 0 27.9-22.7 50.6-50.6 50.6-27.9 0-50.6-22.7-50.6-50.6 0-4.5 0.6-9 1.7-13.2l-133.2-67.8c-9.3 12.3-24 20.3-40.5 20.3-27.9 0-50.6-22.7-50.6-50.6zm242.8 111.3c0 16.7 13.7 30.3 30.4 30.3 16.7 0 30.4-13.6 30.4-30.3 0-16.7-13.7-30.4-30.4-30.4-16.7 0-30.4 13.7-30.4 30.4zm0-222.6c0 16.7 13.7 30.4 30.4 30.4 16.7 0 30.4-13.7 30.4-30.4 0-16.7-13.7-30.3-30.4-30.3-16.7 0-30.4 13.6-30.4 30.3zm-222.5 111.3c0 16.7 13.6 30.4 30.3 30.4 16.7 0 30.4-13.7 30.4-30.4 0-16.7-13.7-30.3-30.4-30.3-16.7 0-30.3 13.6-30.3 30.3z"/>
	</g>
</svg>