<svg version="1.2" xmlns="http://www.w3.org/2000/svg" viewBox="0 0 368 514" width="368" height="514">
	<title>noun-share-1402442-svg</title>
	<style>
		.s0 { fill: #000000 } 
	</style>
	<g id="Layer">
		<path id="Layer" class="s0" d="m184 363.5c3 0 5.8-1.2 7.9-3.3 2.1-2.1 3.3-4.9 3.3-7.9v-306.3l79.5 79c4.5 3.3 10.7 2.9 14.7-1.1 3.9-3.9 4.3-10.2 1-14.6l-98.6-98.6c-4.3-4.2-11.3-4.2-15.6 0l-98.6 98.6c-3.3 4.4-2.9 10.7 1 14.6 4 4 10.2 4.4 14.7 1.1l79.5-79v306.3c0 3 1.2 5.8 3.3 7.9 2.1 2.1 4.9 3.3 7.9 3.3z"/>
		<path id="Layer" class="s0" d="m314.5 172h-52.1c-6.2 0-11.2 5-11.2 11.2 0 6.2 5 11.2 11.2 11.2h52.1c5.9 0 11.6 2.4 15.8 6.6 4.2 4.2 6.6 9.9 6.6 15.8v242.5c0 5.9-2.4 11.6-6.6 15.8-4.2 4.2-9.9 6.6-15.8 6.6h-261c-5.9 0-11.6-2.4-15.8-6.6-4.2-4.2-6.6-9.9-6.6-15.8v-242.5c0-5.9 2.4-11.6 6.6-15.8 4.2-4.2 9.9-6.6 15.8-6.6h52.1c6.2 0 11.2-5 11.2-11.2 0-6.2-5-11.2-11.2-11.2h-52.1c-11.9 0-23.3 4.7-31.7 13.1-8.4 8.4-13.1 19.8-13.1 31.7v242.5c0 11.9 4.7 23.3 13.1 31.7 8.4 8.4 19.8 13.1 31.7 13.1h261c11.9 0 23.3-4.7 31.7-13.1 8.4-8.4 13.1-19.8 13.1-31.7v-242.5c0-11.9-4.7-23.3-13.1-31.7-8.4-8.4-19.8-13.1-31.7-13.1z"/>
	</g>
</svg>