<svg version="1.2" xmlns="http://www.w3.org/2000/svg" viewBox="0 0 577 438" width="577" height="438">
	<title>noun-view-4487822-svg</title>
	<style>
		.s0 { fill: #000000 } 
	</style>
	<g id="Layer">
		<path id="Layer" fill-rule="evenodd" class="s0" d="m20.6 285.7c0-147.6 119.7-267.4 267.4-267.4 147.7 0 267.4 119.7 267.4 267.4h-37.5c0-126.9-102.9-229.8-229.9-229.8-126.9 0-229.8 102.9-229.8 229.8zm267.4-145.9c80.6 0 145.9 65.3 145.9 145.9 0 80.6-65.3 146-145.9 146-80.6 0-145.9-65.4-145.9-146 0-80.6 65.3-145.9 145.9-145.9zm0 37.6c-59.9 0-108.4 48.5-108.4 108.3 0 59.9 48.6 108.4 108.4 108.4 59.8 0 108.3-48.5 108.3-108.4 0-59.8-48.5-108.3-108.3-108.3z"/>
	</g>
</svg>