<svg version="1.2" xmlns="http://www.w3.org/2000/svg" viewBox="0 0 265 267" width="265" height="267">
	<title>noun-star-1594200-svg</title>
	<style>
		.s0 { fill: #000000 } 
	</style>
	<g id="Layer">
		<path id="Layer" fill-rule="evenodd" class="s0" d="m84.5 253.2c-23.3 12.2-44.9-3.4-40.4-29.3l9.3-54.1-39.3-38.2c-18.8-18.4-10.6-43.7 15.4-47.5l54.3-7.9 24.2-49.2c11.7-23.5 38.4-23.5 50 0l24.2 49.2 54.3 7.9c26 3.7 34.2 29.1 15.4 47.5l-39.2 38.2 9.2 54.1c4.5 25.9-17.1 41.5-40.4 29.3l-48.5-25.5zm43.5-41.9c2.8-1.4 7.2-1.4 10 0l51.4 27c10.9 5.8 18.1 0.6 16-11.6l-9.8-57.2c-0.5-3.1 0.8-7.3 3.1-9.5l41.5-40.5c8.9-8.6 6.1-17-6.1-18.8l-57.4-8.4c-3.1-0.4-6.7-3-8.1-5.8l-25.7-52c-5.4-11.1-14.3-11.1-19.8 0l-25.6 52c-1.4 2.8-5 5.4-8.1 5.8l-57.4 8.4c-12.3 1.8-15 10.2-6.1 18.8l41.5 40.5c2.2 2.2 3.6 6.4 3.1 9.5l-9.8 57.2c-2.1 12.2 5.1 17.4 16 11.6z"/>
	</g>
</svg>