<svg version="1.2" xmlns="http://www.w3.org/2000/svg" viewBox="0 0 368 491" width="368" height="491">
	<title>noun-bill-1328973-svg-svg</title>
	<style>
		.s0 { fill: #000000 } 
	</style>
	<g id="Layer">
		<path id="Layer" fill-rule="evenodd" class="s0" d="m21.2 481.1c-2.6 1.4-5.8 1.4-8.3-0.1-2.6-1.5-4.1-4.3-4.1-7.2v-434.3c0-3 1.6-5.8 4.3-7.3l42-23.3c2.5-1.4 5.6-1.4 8.1 0l38 20.9 37.9-20.9c2.5-1.4 5.6-1.4 8.1 0l37.9 20.9 37.9-20.9c2.5-1.4 5.6-1.4 8.1 0l38 21.1 37.9-21c2.5-1.4 5.6-1.4 8.1 0l42 23.2c2.6 1.5 4.2 4.2 4.2 7.2v434.4c0 2.9-1.5 5.7-4.1 7.2-2.5 1.5-5.7 1.5-8.3 0.1l-37.9-20.9-37.9 20.9c-2.5 1.4-5.6 1.4-8.1 0l-37.9-20.9-38 20.9c-2.5 1.4-5.6 1.4-8.1 0l-37.9-20.9-37.9 20.9c-2.5 1.4-5.6 1.4-8.1 0l-37.9-20.9zm4.4-21.6l29.5-16.3c2.6-1.4 5.6-1.4 8.2 0l37.9 21 37.9-21c2.6-1.4 5.6-1.4 8.2 0l37.9 21 37.9-21c2.5-1.4 5.6-1.4 8.1 0l38 21 37.9-21c2.5-1.4 5.6-1.4 8.1 0l29.5 16.3v-415.2l-33.6-18.5-37.9 20.9c-2.5 1.4-5.6 1.4-8.1 0l-37.9-20.9-37.9 20.9c-2.6 1.4-5.6 1.4-8.2 0l-37.9-20.9-37.9 20.9c-2.5 1.4-5.6 1.4-8.1 0l-37.9-20.9-33.6 18.5z"/>
		<path id="Layer" class="s0" d="m70.1 108.7h230c3.1 0 5.6-2.5 5.6-5.6 0-3.1-2.5-5.6-5.6-5.6h-230c-3.1 0-5.6 2.5-5.6 5.6 0 3.1 2.5 5.6 5.6 5.6z"/>
		<path id="Layer" class="s0" d="m70.1 164.8l171.9-0.1c3.1 0 5.6-2.5 5.6-5.6 0-3-2.5-5.6-5.6-5.6h-171.9c-3.1 0-5.6 2.6-5.6 5.6 0 3.1 2.5 5.6 5.6 5.6z"/>
		<path id="Layer" class="s0" d="m70.1 220.8h212.8c3.1 0 5.6-2.5 5.6-5.6 0-3.1-2.5-5.6-5.6-5.6h-212.8c-3.1 0-5.6 2.5-5.6 5.6 0 3.1 2.5 5.6 5.6 5.6z"/>
		<path id="Layer" class="s0" d="m70.1 276.9h189.5c3.1 0 5.6-2.5 5.6-5.6 0-3.1-2.5-5.6-5.6-5.6h-189.5c-3.1 0-5.6 2.5-5.6 5.6 0 3.1 2.5 5.6 5.6 5.6z"/>
		<path id="Layer" class="s0" d="m70.1 332.9h120c3.1 0 5.6-2.5 5.6-5.6 0-3.1-2.5-5.6-5.6-5.6h-120c-3.1 0-5.6 2.5-5.6 5.6 0 3.1 2.5 5.6 5.6 5.6z"/>
		<path id="Layer" class="s0" d="m70.1 388.9h160.7c3.1 0 5.6-2.5 5.6-5.6 0-3.1-2.5-5.6-5.6-5.6h-160.7c-3.1 0-5.6 2.5-5.6 5.6 0 3.1 2.5 5.6 5.6 5.6z"/>
		<g id="d">
		</g>
	</g>
</svg>