<svg version="1.2" xmlns="http://www.w3.org/2000/svg" viewBox="0 0 359 449" width="359" height="449">
	<title>noun-bill-1844602-svg</title>
	<style>
		.s0 { fill: #000000 } 
	</style>
	<g id="Layer">
		<path id="Layer" fill-rule="evenodd" class="s0" d="m18.1 6.2h321.7c6.1 0 11 4.9 11 11v417.6c0 4.4-2.6 8.3-6.6 10-1.4 0.6-2.9 0.9-4.3 0.9-2.7 0-5.4-1-7.5-2.9l-38-35c-4.2-3.9-10.5-3.9-14.7-0.2l-25 22.3c-12.5 11.2-31.3 11.1-43.8-0.1l-24.6-22.2c-4.2-3.8-10.4-3.8-14.6 0l-24.6 22.2c-12.5 11.2-31.3 11.3-43.8 0.1l-25-22.3c-4.2-3.7-10.5-3.7-14.7 0.2l-38 35c-3.2 3-7.9 3.8-11.8 2-4-1.7-6.6-5.6-6.6-10v-417.6c0-6.1 4.9-11 10.9-11zm76.8 159.5c0 6 4.9 10.9 11 10.9h140.4c6 0 10.9-4.9 10.9-10.9 0-6-4.9-10.9-10.9-10.9h-140.4c-6.1 0-11 4.9-11 10.9zm0 76c0 6.1 4.9 11 11 11h140.4c6 0 10.9-4.9 10.9-11 0-6-4.9-10.9-10.9-10.9h-140.4c-6.1 0-11 4.9-11 10.9z"/>
	</g>
</svg>