<svg version="1.2" xmlns="http://www.w3.org/2000/svg" viewBox="0 0 411 467" width="411" height="467">
	<title>noun-sync-1323373-svg</title>
	<style>
		.s0 { fill: #000000 } 
	</style>
	<g id="Layer">
		<path id="Layer" class="s0" d="m323.2 352.2c-48.2 48.1-120.4 61.6-182 35.8l41.4-23.5-11.2-19.6-74.5 42 42 74.5 19.6-11.2-22.9-40.4c22.4 9 45.9 12.9 68.8 12.9 48.8 0 97.5-19 133.9-55.4 61.6-60.5 73.9-155.1 29.7-229.1l-19.1 11.2c38.7 65.6 28 149-25.7 202.8z"/>
		<path id="Layer" class="s0" d="m61.1 319.1c-38.7-65.5-28-148.9 25.7-202.7 49.9-49.8 124.9-62.7 187.6-33.6l-43.6 24.6 11.2 19.6 74.4-42-42-75-19.6 11.2 21.3 37.5c-69.4-28-150.6-12.9-204.9 41.5-61.1 61-73.4 155.6-29.2 230.1z"/>
	</g>
</svg>