<svg version="1.2" xmlns="http://www.w3.org/2000/svg" viewBox="0 0 510 432" width="510" height="432">
	<title>noun-sync-1077358-svg</title>
	<style>
		.s0 { fill: #000000 } 
	</style>
	<g id="Layer">
		<path id="Layer" fill-rule="evenodd" class="s0" d="m448.8 256.6c-2.3-3.9-6.8-6-11.3-5.3-4.5 0.7-8.2 4-9.2 8.4-11.9 46.4-42.2 88.6-87.7 114.9-88.3 51-199.5 22.5-249-63.2-13.3-23-20.7-47.8-22.8-72.7l48.6 30.9c2.5 1.6 5.6 2.2 8.5 1.6 2.9-0.7 5.5-2.4 7.1-5 1.6-2.5 2.2-5.6 1.5-8.5-0.7-2.9-2.5-5.5-5.1-7l-66.4-42.3c-2.6-1.6-5.7-2.1-8.7-1.4-2.9 0.7-5.5 2.6-7 5.3l-40 69.1c-1.5 2.6-1.9 5.6-1.1 8.5 0.8 2.9 2.6 5.3 5.2 6.8 2.6 1.5 5.6 1.9 8.5 1.1 2.9-0.7 5.3-2.6 6.8-5.2l21.6-37.3c3.7 23.1 11.6 46 23.9 67.3 55.7 96.5 181.1 128.3 279.6 71.4 50.8-29.3 84.8-76.6 98.2-128.7 0.8-2.9 0.3-6.1-1.2-8.7z"/>
		<path id="Layer" fill-rule="evenodd" class="s0" d="m494.1 149.8c-2.1-3.4-5.8-5.4-9.7-5.4-4 0.1-7.6 2.2-9.6 5.7l-20.8 34.9c-3.6-23.6-11.6-47-24.2-68.8-55.7-96.5-181.1-128.2-279.6-71.4-50.5 29.2-84.5 76.2-97.9 128.1-0.8 2.9-0.4 6 1.1 8.6 1.5 2.6 4 4.5 6.9 5.2 2.9 0.8 6 0.3 8.6-1.2 2.5-1.6 4.4-4.1 5.1-7 11.9-46.2 42.1-88.1 87.4-114.3 88.3-51 199.5-22.5 249 63.2 13.4 23.2 20.9 48.2 23 73.4l-48.1-31.3c-2.4-1.7-5.5-2.3-8.4-1.7-3 0.6-5.5 2.3-7.2 4.8-1.6 2.5-2.2 5.6-1.5 8.5 0.6 2.9 2.4 5.5 4.9 7.1l65.9 43.1c2.6 1.7 5.7 2.2 8.7 1.5 3-0.7 5.5-2.5 7.1-5.2l39.3-66.1c2.2-3.6 2.2-8.1 0-11.7z"/>
	</g>
</svg>