<svg version="1.2" xmlns="http://www.w3.org/2000/svg" viewBox="0 0 407 108" width="407" height="108">
	<title>noun-three-dots-4215489-svg</title>
	<style>
		.s0 { fill: #000000 } 
	</style>
	<g id="Layer">
		<path id="Layer" class="s0" d="m57.8 99.8c-24.3 0-43.9-19.6-43.9-43.8 0-24.3 19.6-43.9 43.9-43.9 24.2 0 43.8 19.6 43.8 43.9 0 24.2-19.6 43.8-43.8 43.8z"/>
		<path id="Layer" class="s0" d="m206 99.8c-24.3 0-43.9-19.6-43.8-43.8 0-24.3 19.6-43.9 43.8-43.9 24.2 0.1 43.8 19.7 43.8 43.9 0 24.2-19.6 43.8-43.8 43.8z"/>
		<path id="Layer" class="s0" d="m354.2 99.9c-24.2-0.1-43.8-19.7-43.8-43.9 0-24.2 19.6-43.8 43.8-43.8 24.3 0 43.9 19.6 43.9 43.8 0 24.3-19.6 43.9-43.9 43.9z"/>
	</g>
</svg>