<svg version="1.2" xmlns="http://www.w3.org/2000/svg" viewBox="0 0 411 506" width="411" height="506">
	<title>noun-trash-5080961-svg</title>
	<style>
		.s0 { fill: #000000 } 
	</style>
	<g id="Layer">
		<path id="Layer" fill-rule="evenodd" class="s0" d="m42.3 125.7h325.4l-20.2 340.2c-1.1 18.6-16.4 33.1-35 33.1h-215c-18.6 0-33.9-14.5-35-33.1z"/>
		<path id="Layer" fill-rule="evenodd" class="s0" d="m123.3 55.7v-11.7c0-19.3 15.7-35 35-35h93.4c19.3 0 35 15.7 35 35v11.7h102.6c7.8 0 14 6.2 14 14v18.6c0 7.8-6.2 14-14 14h-368.6c-7.8 0-14-6.2-14-14v-18.6c0-7.8 6.2-14 14-14 0 0 102.6 0 102.6 0zm140-11.7c0-6.4-5.2-11.7-11.6-11.7h-93.4c-6.4 0-11.6 5.3-11.6 11.7v11.7h116.6z"/>
	</g>
</svg>