<svg version="1.2" xmlns="http://www.w3.org/2000/svg" viewBox="0 0 414 511" width="414" height="511">
	<title>noun-upload-1069809-svg</title>
	<style>
		.s0 { fill: #000000 } 
	</style>
	<g id="Layer">
		<path id="Layer" fill-rule="evenodd" class="s0" d="m400 121.3v353.2c0 8.4-3.3 16.4-9.2 22.3-5.9 5.9-13.9 9.2-22.3 9.2h-315c-8.3 0-16.3-3.3-22.2-9.2-5.9-5.9-9.3-13.9-9.3-22.3v-441c0-8.3 3.3-16.3 9.2-22.3 5.9-5.9 14-9.2 22.3-9.2h226.9zm-31.5 38.3h-94.5c-8.4 0-16.4-3.3-22.3-9.3-5.9-5.9-9.3-13.9-9.2-22.3v-94.4h-189v441h315zm-94.6-31.6h88.2l-88.2-87.8z"/>
		<path id="Layer" class="s0" d="m211 206.7h-1.5c-1.6 0.4-3 1.3-4.1 2.5l-89 88.9c-1.5 1.5-2.4 3.5-2.4 5.6 0 2.1 0.9 4.1 2.4 5.6l11.2 11.2c1.4 1.5 3.5 2.4 5.6 2.4 2.1 0 4.1-0.9 5.6-2.4l56.5-56.7v124.1c0 4.3 3.5 7.9 7.9 7.9h15.7c4.4 0 7.9-3.6 7.9-7.9v-124.1l56.6 56.6c1.5 1.5 3.5 2.3 5.6 2.3 2.1 0 4.1-0.8 5.6-2.3l11.2-11.2c1.5-1.5 2.3-3.5 2.3-5.6 0-2.1-0.8-4.1-2.3-5.6l-89.2-88.8c-1.5-1.6-3.5-2.4-5.6-2.5z"/>
	</g>
</svg>