<svg version="1.2" xmlns="http://www.w3.org/2000/svg" viewBox="0 0 689 456" width="689" height="456">
	<title>noun-usa-flag-1751342-svg</title>
	<style>
		.s0 { fill: #000000 } 
	</style>
	<g id="Layer">
		<path id="Layer" fill-rule="evenodd" class="s0" d="m685.6 246.5h-677.1v-237.8h276.5v0.1h400.6v34h-400.6v34h400.6v34.1h-400.6v34h400.6v34h-400.6v33.6h400.6zm-450.8-194.9h-9.4l7.6 5.5-2.9 9 7.6-5.6 7.6 5.6-2.9-9 7.6-5.5h-9.4l-2.9-9zm7.6 53l7.7-5.5h-9.5l-2.9-8.9-2.9 8.9h-9.4l7.6 5.5-2.9 9 7.6-5.5 7.6 5.5zm0 47.3l7.7-5.5h-9.4l-3-9-2.9 9h-9.4l7.6 5.5-2.9 8.9 7.6-5.5 7.7 5.5zm-22.8 23.8l7.6-5.5h-9.4l-2.9-9-2.9 9h-9.4l7.6 5.5-2.9 8.9 7.6-5.5 7.6 5.5zm-22.8-23.7l7.6-5.5h-9.4l-2.9-9-2.9 9h-9.4l7.6 5.5-2.9 9 7.6-5.6 7.6 5.6zm-22.7 23.7l7.6-5.5h-9.4l-2.9-9-2.9 9h-9.4l7.6 5.5-2.9 8.9 7.6-5.5 7.6 5.5zm-22.8-23.7l7.7-5.5h-9.5l-2.9-9-2.9 9h-9.4l7.6 5.5-2.9 9 7.6-5.6 7.6 5.6zm-22.7 23.7l7.6-5.5h-9.4l-2.9-9-2.9 9h-9.4l7.6 5.5-2.9 9 7.6-5.6 7.6 5.6zm-22.8-23.8l7.7-5.5h-9.5l-2.9-9-2.9 9h-9.4l7.6 5.5-2.9 9 7.6-5.6 7.6 5.6zm-22.7 23.7l7.6-5.5h-9.4l-2.9-9-2.9 9h-9.4l7.6 5.5-2.9 9 7.6-5.6 7.6 5.6zm-22.8-23.8l7.7-5.5h-9.5l-2.9-9-2.9 9h-9.4l7.6 5.5-2.9 9 7.6-5.6 7.6 5.6zm-9.4-47.3l-2.9 8.9 7.6-5.5 7.7 5.5-3-8.9 7.7-5.6h-9.5l-2.9-8.9-2.9 8.9h-9.4zm168.7-23.7l7.6-5.5h-9.4l-2.9-9-2.9 9h-9.4l7.6 5.5-2.9 8.9 7.6-5.5 7.6 5.5zm0 47.3l7.6-5.5h-9.4l-2.9-8.9-2.9 8.9h-9.4l7.6 5.5-2.9 9 7.6-5.5 7.6 5.5zm-24.5-29.1l-3-8.9-2.9 8.9h-9.4l7.6 5.5-2.9 9 7.6-5.5 7.7 5.5-2.9-9 7.6-5.5zm-21 29.1l7.6-5.5h-9.4l-2.9-9-2.9 9h-9.4l7.6 5.5-2.9 8.9 7.6-5.5 7.6 5.5zm7.6-52.8h-9.4l-2.9-8.9-2.9 8.9h-9.4l7.6 5.6-2.9 8.9 7.6-5.5 7.6 5.5-2.9-8.9zm-32.2 23.7l-2.9-9-2.9 9h-9.4l7.6 5.5-2.9 9 7.6-5.5 7.6 5.5-2.9-9 7.7-5.5zm-21 29.1l7.6-5.6h-9.4l-2.9-8.9-2.9 8.9h-9.4l7.6 5.6-2.9 8.9 7.6-5.5 7.6 5.5zm7.6-52.8h-9.4l-2.9-8.9-2.9 8.9h-9.4l7.6 5.5-2.9 9 7.6-5.5 7.6 5.5-2.9-9zm-32.2 23.8l-2.9-9-2.9 9h-9.4l7.6 5.5-2.9 9 7.6-5.6 7.6 5.6-2.9-9 7.6-5.5zm-20.9 29.1l7.6-5.6h-9.4l-2.9-8.9-2.9 8.9h-9.4l7.6 5.6-2.9 8.9 7.6-5.5 7.6 5.5zm7.6-52.8h-9.4l-2.9-9-2.9 9h-9.4l7.6 5.5-2.9 9 7.6-5.6 7.6 5.6-2.9-9zm111.9-47.5l7.6 5.6-2.9 8.9 7.6-5.5 7.6 5.5-2.9-8.9 7.6-5.6h-9.4l-2.9-8.9-2.9 8.9zm-13.4 23.8h-9.4l7.6 5.5-2.9 9 7.6-5.6 7.7 5.6-3-9 7.7-5.5h-9.5l-2.9-9zm-32.1-23.7l7.6 5.5-2.9 9 7.6-5.6 7.6 5.6-2.9-9 7.6-5.5h-9.4l-2.9-9-2.9 9zm-13.4 23.7h-9.4l7.6 5.6-2.9 8.9 7.7-5.5 7.6 5.5-2.9-8.9 7.6-5.6h-9.4l-2.9-8.9zm-32.2-23.8l7.6 5.6-2.9 8.9 7.6-5.5 7.6 5.5-2.9-8.9 7.6-5.6h-9.4l-2.9-8.9-2.9 8.9zm-13.3 23.8h-9.5l7.7 5.5-3 9 7.7-5.6 7.6 5.6-2.9-9 7.6-5.5h-9.4l-2.9-9zm-32.2-23.7l7.6 5.5-2.9 9 7.6-5.6 7.6 5.6-2.9-9 7.6-5.5h-9.4l-2.9-9-2.9 9zm-13.3 23.7h-9.5l7.7 5.6-2.9 8.9 7.6-5.5 7.6 5.5-2.9-8.9 7.6-5.6h-9.4l-2.9-8.9zm-32.2-23.8l7.6 5.6-2.9 8.9 7.6-5.5 7.6 5.5-2.9-8.9 7.6-5.6h-9.4l-2.9-8.9-2.9 8.9zm0 47.5l7.6 5.5-2.9 9 7.6-5.5 7.6 5.5-2.9-9 7.6-5.5h-9.4l-2.9-8.9-2.9 8.9zm0 47.3l7.6 5.5-2.9 9 7.6-5.5 7.6 5.5-2.9-9 7.6-5.5h-9.4l-2.9-8.9-2.9 8.9zm0 47.5l7.6 5.5-2.9 9 7.6-5.6 7.6 5.6-2.9-9 7.6-5.5h-9.4l-2.9-9-2.9 9zm17 57.2l7.6-5.6h-9.4l-2.9-8.9-2.9 8.9h-9.4l7.6 5.6-2.9 8.9 7.6-5.5 7.6 5.5zm25.7-15l-2.9-8.9 7.6-5.5h-9.4l-2.9-9-2.9 9h-9.4l7.6 5.5-2.9 8.9 7.6-5.5zm19.8 15l7.6-5.5h-9.4l-2.9-9-2.9 9h-9.4l7.6 5.5-2.9 8.9 7.6-5.5 7.6 5.5zm25.7-14.9l-2.9-9 7.6-5.5h-9.4l-2.9-9-2.9 9h-9.5l7.7 5.5-3 9 7.7-5.6zm19.8 15l7.6-5.5h-9.4l-2.9-9-2.9 9h-9.4l7.6 5.5-2.9 9 7.6-5.6 7.6 5.6zm25.7-15l-2.9-9 7.6-5.5h-9.4l-2.9-9-3 9h-9.4l7.7 5.5-3 9 7.7-5.6zm19.8 15l7.6-5.5h-9.4l-2.9-9-2.9 9h-9.4l7.6 5.5-2.9 9 7.6-5.6 7.6 5.6zm25.7-15l-2.9-9 7.6-5.5h-9.4l-2.9-8.9-3 8.9h-9.4l7.6 5.5-2.9 9 7.7-5.5zm19.8 14.9l7.6-5.5h-9.4l-2.9-8.9-2.9 8.9h-9.4l7.6 5.5-2.9 9 7.6-5.5 7.6 5.5zm25.7-15l-2.9-8.9 7.6-5.6h-9.4l-2.9-8.9-3 8.9h-9.4l7.6 5.6-2.9 8.9 7.6-5.5zm19.9 15l7.6-5.6h-9.4l-2.9-8.9-2.9 8.9h-9.4l7.6 5.6-2.9 8.9 7.6-5.5 7.6 5.5zm7.6-57.2h-9.4l-2.9-8.9-2.9 8.9h-9.4l7.6 5.6-2.9 8.9 7.6-5.5 7.6 5.5-2.9-8.9zm0-47.5h-9.4l-2.9-9-2.9 9h-9.5l7.7 5.5-3 9 7.7-5.6 7.6 5.6-2.9-9zm0-47.3h-9.4l-3-8.9-2.9 8.9h-9.4l7.6 5.6-2.9 8.9 7.6-5.5 7.6 5.5-2.9-8.9zm0-47.5h-9.4l-2.9-9-2.9 9h-9.4l7.6 5.5-2.9 9 7.6-5.6 7.6 5.6-2.9-9z"/>
		<path id="Layer" class="s0" d="m8.5 280.9h677.2v34.1h-677.2z"/>
		<path id="Layer" class="s0" d="m8.5 349h677.2v34h-677.2z"/>
		<path id="Layer" class="s0" d="m8.5 417.1l677.2-0.1v34.1h-677.2z"/>
	</g>
</svg>