<?xml version="1.0" encoding="utf-8"?>
<!-- Generator: Adobe Illustrator 24.0.1, SVG Export Plug-In . SVG Version: 6.00 Build 0)  -->
<svg version="1.1" id="Layer_1" xmlns="http://www.w3.org/2000/svg" xmlns:xlink="http://www.w3.org/1999/xlink" x="0px" y="0px"
	 viewBox="0 0 689 456" style="enable-background:new 0 0 689 456;" xml:space="preserve">
<style type="text/css">
	.st0{fill-rule:evenodd;clip-rule:evenodd;fill:#BE0B31;}
	.st1{fill-rule:evenodd;clip-rule:evenodd;fill:#002768;}
	.st2{fill-rule:evenodd;clip-rule:evenodd;fill:#FFFFFF;}
	.st3{fill:#BE0B31;}
</style>
<title>noun-usa-flag-1751342-svg</title>
<g id="Layer_4_">
	<path id="Layer" class="st0" d="M285,212.5h400.6v34H285 M285,178.9v33.6 M285,144.9h400.6v34H285 M285,76.8h400.6v34.1H285v34
		 M285,42.8v34 M285,8.7v0.1h400.6v34H285"/>
	<path id="Layer_5_" class="st1" d="M288.5,246.5H8.5V8.7l114.3,0l165.6,0.1v34v34v34.1v34v34v33.6V246.5z"/>
	<path id="Layer_6_" class="st2" d="M685.6,8.8v34v34v34.1v34v34V8.8z M234.8,51.6h-9.4l7.6,5.5l-2.9,9l7.6-5.6l7.6,5.6l-2.9-9
		l7.6-5.5h-9.4l-2.9-9L234.8,51.6z M242.4,104.6l7.7-5.5h-9.5l-2.9-8.9l-2.9,8.9h-9.4l7.6,5.5l-2.9,9l7.6-5.5l7.6,5.5L242.4,104.6z
		 M242.4,151.9l7.7-5.5h-9.4l-3-9l-2.9,9h-9.4l7.6,5.5l-2.9,8.9l7.6-5.5l7.7,5.5L242.4,151.9z M219.6,175.7l7.6-5.5h-9.4l-2.9-9
		l-2.9,9h-9.4l7.6,5.5l-2.9,8.9l7.6-5.5l7.6,5.5L219.6,175.7z M196.8,152l7.6-5.5H195l-2.9-9l-2.9,9h-9.4l7.6,5.5l-2.9,9l7.6-5.6
		l7.6,5.6L196.8,152z M174.1,175.7l7.6-5.5h-9.4l-2.9-9l-2.9,9h-9.4l7.6,5.5l-2.9,8.9l7.6-5.5l7.6,5.5L174.1,175.7z M151.3,152
		l7.7-5.5h-9.5l-2.9-9l-2.9,9h-9.4l7.6,5.5l-2.9,9l7.6-5.6l7.6,5.6L151.3,152z M128.6,175.7l7.6-5.5h-9.4l-2.9-9l-2.9,9h-9.4
		l7.6,5.5l-2.9,9l7.6-5.6l7.6,5.6L128.6,175.7z M105.8,151.9l7.7-5.5H104l-2.9-9l-2.9,9h-9.4l7.6,5.5l-2.9,9l7.6-5.6l7.6,5.6
		L105.8,151.9z M83.1,175.6l7.6-5.5h-9.4l-2.9-9l-2.9,9h-9.4l7.6,5.5l-2.9,9l7.6-5.6l7.6,5.6L83.1,175.6z M60.3,151.8l7.7-5.5h-9.5
		l-2.9-9l-2.9,9h-9.4l7.6,5.5l-2.9,9l7.6-5.6l7.6,5.6L60.3,151.8z M50.9,104.5l-2.9,8.9l7.6-5.5l7.7,5.5l-3-8.9l7.7-5.6h-9.5
		L55.6,90l-2.9,8.9h-9.4L50.9,104.5z M219.6,80.8l7.6-5.5h-9.4l-2.9-9l-2.9,9h-9.4l7.6,5.5l-2.9,8.9l7.6-5.5l7.6,5.5L219.6,80.8z
		 M219.6,128.1l7.6-5.5h-9.4l-2.9-8.9l-2.9,8.9h-9.4l7.6,5.5l-2.9,9l7.6-5.5l7.6,5.5L219.6,128.1z M195.1,99l-3-8.9l-2.9,8.9h-9.4
		l7.6,5.5l-2.9,9l7.6-5.5l7.7,5.5l-2.9-9l7.6-5.5H195.1z M174.1,128.1l7.6-5.5h-9.4l-2.9-9l-2.9,9h-9.4l7.6,5.5l-2.9,8.9l7.6-5.5
		l7.6,5.5L174.1,128.1z M181.7,75.3h-9.4l-2.9-8.9l-2.9,8.9h-9.4l7.6,5.6l-2.9,8.9l7.6-5.5l7.6,5.5l-2.9-8.9L181.7,75.3z M149.5,99
		l-2.9-9l-2.9,9h-9.4l7.6,5.5l-2.9,9l7.6-5.5l7.6,5.5l-2.9-9L159,99H149.5z M128.5,128.1l7.6-5.6h-9.4l-2.9-8.9l-2.9,8.9h-9.4
		l7.6,5.6l-2.9,8.9l7.6-5.5l7.6,5.5L128.5,128.1z M136.1,75.3h-9.4l-2.9-8.9l-2.9,8.9h-9.4l7.6,5.5l-2.9,9l7.6-5.5l7.6,5.5l-2.9-9
		L136.1,75.3z M103.9,99.1l-2.9-9l-2.9,9h-9.4l7.6,5.5l-2.9,9l7.6-5.6l7.6,5.6l-2.9-9l7.6-5.5H103.9z M83,128.2l7.6-5.6h-9.4
		l-2.9-8.9l-2.9,8.9H66l7.6,5.6l-2.9,8.9l7.6-5.5l7.6,5.5L83,128.2z M90.6,75.4h-9.4l-2.9-9l-2.9,9H66l7.6,5.5l-2.9,9l7.6-5.6
		l7.6,5.6l-2.9-9L90.6,75.4z M202.5,27.9l7.6,5.6l-2.9,8.9l7.6-5.5l7.6,5.5l-2.9-8.9l7.6-5.6h-9.4l-2.9-8.9l-2.9,8.9L202.5,27.9z
		 M189.1,51.7h-9.4l7.6,5.5l-2.9,9l7.6-5.6l7.7,5.6l-3-9l7.7-5.5h-9.5l-2.9-9L189.1,51.7z M157,28l7.6,5.5l-2.9,9l7.6-5.6l7.6,5.6
		l-2.9-9l7.6-5.5h-9.4l-2.9-9l-2.9,9H157z M143.6,51.7h-9.4l7.6,5.6l-2.9,8.9l7.7-5.5l7.6,5.5l-2.9-8.9l7.6-5.6h-9.4l-2.9-8.9
		L143.6,51.7z M111.4,27.9l7.6,5.6l-2.9,8.9l7.6-5.5l7.6,5.5l-2.9-8.9l7.6-5.6h-9.4l-2.9-8.9l-2.9,8.9L111.4,27.9z M98.1,51.7h-9.5
		l7.7,5.5l-3,9l7.7-5.6l7.6,5.6l-2.9-9l7.6-5.5h-9.4l-2.9-9L98.1,51.7z M65.9,28l7.6,5.5l-2.9,9l7.6-5.6l7.6,5.6l-2.9-9l7.6-5.5
		h-9.4l-2.9-9l-2.9,9H65.9z M52.6,51.7h-9.5l7.7,5.6l-2.9,8.9l7.6-5.5l7.6,5.5l-2.9-8.9l7.6-5.6h-9.4l-2.9-8.9L52.6,51.7z
		 M20.4,27.9l7.6,5.6l-2.9,8.9l7.6-5.5l7.6,5.5l-2.9-8.9l7.6-5.6h-9.4L32.7,19l-2.9,8.9L20.4,27.9z M20.4,75.4l7.6,5.5l-2.9,9
		l7.6-5.5l7.6,5.5l-2.9-9l7.6-5.5h-9.4l-2.9-8.9l-2.9,8.9H20.4z M20.4,122.7l7.6,5.5l-2.9,9l7.6-5.5l7.6,5.5l-2.9-9l7.6-5.5h-9.4
		l-2.9-8.9l-2.9,8.9H20.4z M20.4,170.2l7.6,5.5l-2.9,9l7.6-5.6l7.6,5.6l-2.9-9l7.6-5.5h-9.4l-2.9-9l-2.9,9H20.4z M37.4,227.4
		l7.6-5.6h-9.4l-2.9-8.9l-2.9,8.9h-9.4l7.6,5.6l-2.9,8.9l7.6-5.5l7.6,5.5L37.4,227.4z M63.1,212.4l-2.9-8.9l7.6-5.5h-9.4l-2.9-9
		l-2.9,9h-9.4l7.6,5.5l-2.9,8.9l7.6-5.5L63.1,212.4z M82.9,227.4l7.6-5.5h-9.4l-2.9-9l-2.9,9h-9.4l7.6,5.5l-2.9,8.9l7.6-5.5l7.6,5.5
		L82.9,227.4z M108.6,212.5l-2.9-9l7.6-5.5h-9.4l-2.9-9l-2.9,9h-9.5l7.7,5.5l-3,9l7.7-5.6L108.6,212.5z M128.4,227.5l7.6-5.5h-9.4
		l-2.9-9l-2.9,9h-9.4l7.6,5.5l-2.9,9l7.6-5.6l7.6,5.6L128.4,227.5z M154.1,212.5l-2.9-9l7.6-5.5h-9.4l-2.9-9l-3,9h-9.4l7.7,5.5l-3,9
		l7.7-5.6L154.1,212.5z M173.9,227.5l7.6-5.5h-9.4l-2.9-9l-2.9,9h-9.4l7.6,5.5l-2.9,9l7.6-5.6l7.6,5.6L173.9,227.5z M199.6,212.5
		l-2.9-9l7.6-5.5h-9.4l-2.9-8.9l-3,8.9h-9.4l7.6,5.5l-2.9,9l7.7-5.5L199.6,212.5z M219.4,227.4l7.6-5.5h-9.4l-2.9-8.9l-2.9,8.9h-9.4
		l7.6,5.5l-2.9,9l7.6-5.5l7.6,5.5L219.4,227.4z M245.1,212.4l-2.9-8.9l7.6-5.6h-9.4l-2.9-8.9l-3,8.9h-9.4l7.6,5.6l-2.9,8.9l7.6-5.5
		L245.1,212.4z M265,227.4l7.6-5.6h-9.4l-2.9-8.9l-2.9,8.9H248l7.6,5.6l-2.9,8.9l7.6-5.5l7.6,5.5L265,227.4z M272.6,170.2h-9.4
		l-2.9-8.9l-2.9,8.9H248l7.6,5.6l-2.9,8.9l7.6-5.5l7.6,5.5l-2.9-8.9L272.6,170.2z M272.6,122.7h-9.4l-2.9-9l-2.9,9h-9.5l7.7,5.5
		l-3,9l7.7-5.6l7.6,5.6l-2.9-9L272.6,122.7z M272.6,75.4h-9.4l-3-8.9l-2.9,8.9h-9.4l7.6,5.6l-2.9,8.9l7.6-5.5l7.6,5.5l-2.9-8.9
		L272.6,75.4z M272.6,27.9h-9.4l-2.9-9l-2.9,9H248l7.6,5.5l-2.9,9l7.6-5.6l7.6,5.6l-2.9-9L272.6,27.9z"/>
	<path id="Layer_1_" class="st3" d="M8.5,280.9h677.2V315H8.5V280.9z"/>
	<path id="Layer_2_" class="st3" d="M8.5,349h677.2v34H8.5V349z"/>
	<path id="Layer_3_" class="st3" d="M8.5,417.1l677.2-0.1v34.1H8.5V417.1z"/>
</g>
</svg>
