<svg version="1.2" xmlns="http://www.w3.org/2000/svg" viewBox="0 0 525 434" width="525" height="434">
	<title>noun-credit-card-5612554-svg</title>
	<style>
		.s0 { fill: #000000 } 
	</style>
	<g id="Layer">
		<path id="Layer" class="s0" d="m98.7 310.3c0-12.9 10.4-23.3 23.3-23.3h46.7c12.9 0 23.3 10.4 23.3 23.3 0 12.9-10.4 23.4-23.3 23.4h-46.7c-12.9 0-23.3-10.5-23.3-23.4z"/>
		<path id="Layer" class="s0" d="m238.7 287c-12.9 0-23.4 10.4-23.4 23.3 0 12.9 10.5 23.4 23.4 23.4h23.3c12.9 0 23.3-10.5 23.3-23.4 0-12.9-10.4-23.3-23.3-23.3z"/>
		<path id="Layer" fill-rule="evenodd" class="s0" d="m383.6 7c19.1 0 34.9 0 47.7 1.1 13.3 1.1 25.6 3.5 37.1 9.4 17 8.9 30.9 22.8 39.8 39.8 5.9 11.5 8.3 23.7 9.4 37.1 1.1 12.8 1.1 28.6 1.1 47.7v149.8c0 19.1 0 34.9-1.1 47.7-1.1 13.4-3.5 25.6-9.4 37.1-8.9 17-22.8 30.9-39.8 39.8-11.5 5.9-23.8 8.3-37.1 9.4-12.8 1.1-28.6 1.1-47.7 1.1h-243.2c-19.1 0-34.9 0-47.7-1.1-13.3-1.1-25.6-3.5-37.1-9.4-17-8.9-30.9-22.8-39.8-39.8-5.9-11.5-8.3-23.7-9.4-37.1-1.1-12.8-1.1-28.6-1.1-47.7v-149.8c0-19.1 0-34.9 1.1-47.7 1.1-13.4 3.5-25.6 9.4-37.1 8.9-17 22.8-30.9 39.8-39.8 11.5-5.9 23.8-8.3 37.1-9.4 12.8-1.1 28.6-1.1 47.7-1.1zm-326.4 71.8c-1.9 3.7-3.5 9-4.3 19.4-0.6 6.9-0.8 15.1-0.9 25.5h419.9c0-10.4-0.3-18.6-0.8-25.5-0.9-10.4-2.5-15.7-4.4-19.4-4.4-8.5-11.4-15.5-19.9-19.9-3.7-1.9-9-3.5-19.4-4.3-10.6-0.9-24.5-0.9-44.8-0.9h-241.3c-20.3 0-34.1 0-44.8 0.9-10.4 0.8-15.7 2.4-19.4 4.3-8.5 4.4-15.4 11.4-19.9 19.9zm-5.2 91.5v120.7c0 20.3 0 34.1 0.9 44.8 0.8 10.4 2.4 15.7 4.3 19.4 4.5 8.5 11.4 15.4 19.9 19.9 3.7 1.9 9 3.5 19.4 4.3 10.7 0.9 24.5 0.9 44.8 0.9h241.3c20.3 0 34.2 0 44.8-0.9 10.4-0.8 15.7-2.4 19.4-4.3 8.5-4.5 15.5-11.4 19.9-19.9 1.9-3.7 3.5-9 4.4-19.4 0.9-10.7 0.9-24.5 0.9-44.8v-120.7z"/>
	</g>
</svg>