<svg version="1.2" xmlns="http://www.w3.org/2000/svg" viewBox="0 0 501 500" width="501" height="500">
	<title>noun-wallet-5587856-svg</title>
	<style>
		.s0 { fill: #000000 } 
	</style>
	<g id="Layer">
		<path id="Layer" class="s0" d="m410.5 320c9.7 0 17.5-7.8 17.5-17.5 0-9.7-7.8-17.5-17.5-17.5-9.7 0-17.5 7.8-17.5 17.5 0 9.7 7.8 17.5 17.5 17.5z"/>
		<path id="Layer" fill-rule="evenodd" class="s0" d="m428 110h8.8c24.1 0 43.7 19.6 43.7 43.8v96.2h8.8c4.8 0 8.7 3.9 8.7 8.8v87.5c0 4.8-3.9 8.7-8.7 8.7h-8.8v96.3c0 24.1-19.6 43.7-43.7 43.7h-385c-24.2 0-43.8-19.6-43.8-43.7v-297.5c0-23.7 18.8-43 42.3-43.8l321.7-103.2q0.1-0.1 0.2-0.1c28-8 55.8 13 55.8 42zm-17.5 140h52.5v-96.2c0-14.5-11.8-26.3-26.3-26.3h-385c-14.4 0-26.2 11.8-26.2 26.3v297.5c0 14.5 11.8 26.2 26.2 26.2h385c14.5 0 26.3-11.7 26.3-26.2v-96.3h-52.5c-29 0-52.5-23.5-52.5-52.5 0-28.9 23.5-52.5 52.5-52.5zm0-201.2c0-17.4-16.6-30-33.3-25.3l-269.6 86.5h302.9zm0 218.8c-19.3 0-35 15.7-35 35 0 19.3 15.7 35 35 35h70v-70z"/>
		<g id="i">
		</g>
	</g>
</svg>