<svg xmlns="http://www.w3.org/2000/svg" viewBox="0 0 210.93 238.21"><defs><style>.cls-1{fill:#274233;}.cls-2{fill:#093f1f;opacity:0.67;}.cls-3{fill:#03f967;opacity:0.26;}.cls-4{fill:#f9f9f9;}</style></defs><title>Asset 2</title><g id="Layer_2" data-name="Layer 2"><g id="Layer_3" data-name="Layer 3"><path class="cls-1" d="M184.32,178C145.64,229.78,79,245.46,35.43,213,4.49,189.87-6.46,148.67,3.67,108.16a135,135,0,0,1,23-47.9C65.3,8.43,132-7.25,175.51,25.25S223,126.11,184.32,178Z"/></g><g id="Layer_3_copy" data-name="Layer 3 copy"><path class="cls-2" d="M188.58,159.26c-10.72,28.44-23.72,62.94-58.47,74.93-35.32,12.19-69.64-7-74.27-9.67a101.51,101.51,0,0,1-38.1-40.22c-17-32.68-10.39-64.61-7.94-75.6C23.91,45.46,92-11.1,148.1,1.87a72.94,72.94,0,0,1,34.29,18.78C224.92,62.83,193.88,145.2,188.58,159.26Z"/></g><g id="Layer_3_copy_2" data-name="Layer 3 copy 2"><path class="cls-3" d="M186.28,152.43c-9.94,31.16-22.3,69.93-56.64,81.42-31.1,10.4-62.79-7.42-69-10.93A99.31,99.31,0,0,1,23.21,186c-17-30.73-11.41-62-9.31-72.81C26,51.19,89.94-7.33,144,2.16a67,67,0,0,1,33.27,16.32C217.24,55.47,192.75,132.16,186.28,152.43Z"/></g><g id="Layer_2-2" data-name="Layer 2"><path class="cls-4" d="M35.28,190.74c23.15,14.39,55.06,14.85,80,5.61a113.18,113.18,0,0,0,57.15-48.08c11.77-19.84,17.5-44.41,10-66.82A70.26,70.26,0,0,0,146.19,41c-16.93-7.85-38.09-6.69-54.86.83a74.17,74.17,0,0,0-27.8,21.47,52.87,52.87,0,0,0-11.4,27.52c-1,9.32-.31,18.7-1.79,28a80.15,80.15,0,0,1-4.85,17.4,80.64,80.64,0,0,1-8.3,16.22c-3.57,5.09-8.34,8.89-10.67,14.84C22.78,176.83,26.81,185.47,35.28,190.74Z"/></g></g></svg>